<svg width="34" height="33" viewBox="0 0 34 33" fill="none" xmlns="http://www.w3.org/2000/svg">
<path d="M11 12.375C11.9117 12.375 12.786 12.7372 13.4307 13.3818C14.0753 14.0265 14.4375 14.9008 14.4375 15.8125V16.5H7.5625V15.8125C7.5625 14.9008 7.92466 14.0265 8.56932 13.3818C9.21398 12.7372 10.0883 12.375 11 12.375V12.375ZM15.8125 16.5V15.8125C15.8125 14.5361 15.3055 13.3121 14.403 12.4095C13.5004 11.507 12.2764 11 11 11C9.72365 11 8.49957 11.507 7.59705 12.4095C6.69453 13.3121 6.1875 14.5361 6.1875 15.8125V16.5H1.375V30.25C1.375 30.9793 1.66473 31.6788 2.18046 32.1945C2.69618 32.7103 3.39565 33 4.125 33H17.875C18.6043 33 19.3038 32.7103 19.8195 32.1945C20.3353 31.6788 20.625 30.9793 20.625 30.25V16.5H15.8125ZM2.75 17.875H19.25V30.25C19.25 30.6147 19.1051 30.9644 18.8473 31.2223C18.5894 31.4801 18.2397 31.625 17.875 31.625H4.125C3.76033 31.625 3.41059 31.4801 3.15273 31.2223C2.89487 30.9644 2.75 30.6147 2.75 30.25V17.875Z" fill="#222529"/>
<circle cx="25" cy="12" r="9" fill="#B7926A"/>
<path d="M24.84 15.208C24.2107 15.208 23.6453 15.064 23.144 14.776C22.6533 14.488 22.264 14.0933 21.976 13.592C21.6987 13.08 21.56 12.504 21.56 11.864C21.56 11.2347 21.6987 10.6747 21.976 10.184C22.264 9.69333 22.6587 9.30933 23.16 9.032C23.6613 8.75467 24.2267 8.616 24.856 8.616C25.4747 8.616 26.0293 8.76 26.52 9.048C27.0107 9.32533 27.3893 9.71467 27.656 10.216C27.9333 10.7173 28.072 11.2827 28.072 11.912C28.072 12.5413 27.9333 13.1067 27.656 13.608C27.3787 14.1093 26.9947 14.504 26.504 14.792C26.0133 15.0693 25.4587 15.208 24.84 15.208ZM25.016 14.984C25.656 14.984 26.136 14.728 26.456 14.216C26.7867 13.6933 26.952 12.9893 26.952 12.104C26.952 11.0373 26.7333 10.2267 26.296 9.672C25.8693 9.11733 25.3307 8.84 24.68 8.84C24.0507 8.84 23.5547 9.10667 23.192 9.64C22.84 10.1733 22.664 10.872 22.664 11.736C22.664 12.6853 22.8773 13.464 23.304 14.072C23.7307 14.68 24.3013 14.984 25.016 14.984Z" fill="white"/>
</svg>
