<svg width="89" height="19" viewBox="0 0 89 19" fill="none" xmlns="http://www.w3.org/2000/svg">
<path d="M7.064 5.216C7.028 4.64 6.89 4.094 6.65 3.578C6.41 3.062 6.062 2.642 5.606 2.318C5.15 1.994 4.568 1.832 3.86 1.832C3.116 1.832 2.546 2.042 2.15 2.462C1.754 2.882 1.556 3.374 1.556 3.938C1.556 4.442 1.7 4.868 1.988 5.216C2.276 5.552 2.648 5.852 3.104 6.116C3.572 6.368 4.064 6.614 4.58 6.854C5.036 7.058 5.492 7.28 5.948 7.52C6.404 7.748 6.818 8.012 7.19 8.312C7.562 8.612 7.856 8.972 8.072 9.392C8.3 9.8 8.414 10.292 8.414 10.868C8.414 11.528 8.246 12.116 7.91 12.632C7.586 13.148 7.112 13.556 6.488 13.856C5.864 14.144 5.102 14.288 4.202 14.288C3.662 14.288 3.104 14.21 2.528 14.054C1.952 13.898 1.442 13.67 0.998 13.37L1.088 14.144H0.152L0.044 10.31H0.746C0.806 11.366 1.172 12.17 1.844 12.722C2.516 13.262 3.326 13.532 4.274 13.532C4.742 13.532 5.174 13.448 5.57 13.28C5.966 13.1 6.278 12.842 6.506 12.506C6.746 12.17 6.866 11.762 6.866 11.282C6.866 10.742 6.722 10.292 6.434 9.932C6.146 9.572 5.774 9.26 5.318 8.996C4.862 8.732 4.376 8.48 3.86 8.24C3.404 8.036 2.954 7.82 2.51 7.592C2.066 7.364 1.658 7.106 1.286 6.818C0.926 6.518 0.632 6.164 0.404 5.756C0.188 5.348 0.08 4.856 0.08 4.28C0.08 3.968 0.134 3.632 0.242 3.272C0.35 2.912 0.536 2.57 0.8 2.246C1.076 1.91 1.448 1.64 1.916 1.436C2.396 1.22 3.002 1.112 3.734 1.112C4.19 1.112 4.7 1.178 5.264 1.31C5.84 1.43 6.374 1.67 6.866 2.03L6.794 1.256H7.712V5.216H7.064ZM15.7829 13.46C16.1549 13.46 16.4129 13.37 16.5569 13.19C16.7009 12.998 16.7849 12.74 16.8089 12.416C16.8329 12.08 16.8449 11.696 16.8449 11.264V8.744C16.8449 7.712 16.6769 6.938 16.3409 6.422C16.0169 5.906 15.5009 5.654 14.7929 5.666C14.3489 5.678 13.9109 5.786 13.4789 5.99C13.0589 6.194 12.7169 6.458 12.4529 6.782V12.092C12.4529 12.332 12.4469 12.548 12.4349 12.74C12.4229 12.92 12.3989 13.112 12.3629 13.316C12.5549 13.304 12.7409 13.298 12.9209 13.298C13.1129 13.286 13.3049 13.274 13.4969 13.262V14H9.82489V13.46C10.1969 13.46 10.4549 13.37 10.5989 13.19C10.7429 12.998 10.8269 12.74 10.8509 12.416C10.8869 12.08 10.9049 11.696 10.9049 11.264V2.75C10.9049 2.558 10.9049 2.378 10.9049 2.21C10.9169 2.03 10.9349 1.82 10.9589 1.58C10.7429 1.592 10.5269 1.604 10.3109 1.616C10.1069 1.628 9.89689 1.64 9.68089 1.652V0.895999C10.2089 0.895999 10.6169 0.871999 10.9049 0.823999C11.2049 0.775999 11.4269 0.715999 11.5709 0.643999C11.7269 0.571999 11.8469 0.493999 11.9309 0.409999H12.4529V5.9C12.7169 5.672 13.0109 5.474 13.3349 5.306C13.6709 5.126 14.0129 4.982 14.3609 4.874C14.7209 4.766 15.0689 4.712 15.4049 4.712C16.4489 4.712 17.1989 5.042 17.6549 5.702C18.1229 6.35 18.3629 7.364 18.3749 8.744L18.3929 12.092C18.3929 12.332 18.3869 12.548 18.3749 12.74C18.3749 12.92 18.3569 13.112 18.3209 13.316C18.5129 13.304 18.6989 13.298 18.8789 13.298C19.0709 13.286 19.2629 13.274 19.4549 13.262V14H15.7829V13.46ZM25.2443 14.288C24.4043 14.288 23.6423 14.096 22.9583 13.712C22.2743 13.316 21.7283 12.776 21.3203 12.092C20.9243 11.396 20.7263 10.604 20.7263 9.716C20.7263 8.768 20.9243 7.916 21.3203 7.16C21.7163 6.404 22.2563 5.81 22.9403 5.378C23.6243 4.934 24.3923 4.712 25.2443 4.712C26.0843 4.712 26.8463 4.916 27.5303 5.324C28.2143 5.72 28.7603 6.26 29.1683 6.944C29.5763 7.628 29.7803 8.408 29.7803 9.284C29.7803 10.208 29.5763 11.054 29.1683 11.822C28.7723 12.578 28.2323 13.178 27.5483 13.622C26.8643 14.066 26.0963 14.288 25.2443 14.288ZM25.3883 13.568C26.0243 13.568 26.5283 13.388 26.9003 13.028C27.2723 12.668 27.5363 12.2 27.6923 11.624C27.8603 11.048 27.9443 10.442 27.9443 9.806C27.9443 9.266 27.8903 8.738 27.7823 8.222C27.6863 7.694 27.5303 7.22 27.3143 6.8C27.0983 6.368 26.8163 6.026 26.4683 5.774C26.1323 5.522 25.7243 5.396 25.2443 5.396C24.6203 5.396 24.1103 5.576 23.7143 5.936C23.3183 6.296 23.0243 6.764 22.8323 7.34C22.6523 7.916 22.5623 8.534 22.5623 9.194C22.5623 9.938 22.6643 10.646 22.8683 11.318C23.0723 11.978 23.3843 12.518 23.8043 12.938C24.2243 13.358 24.7523 13.568 25.3883 13.568ZM31.1476 18.59V18.05C31.5196 18.05 31.7776 17.954 31.9216 17.762C32.0656 17.582 32.1496 17.324 32.1736 16.988C32.1976 16.664 32.2096 16.286 32.2096 15.854L32.2456 7.16C32.2456 6.968 32.2456 6.776 32.2456 6.584C32.2576 6.392 32.2816 6.194 32.3176 5.99C32.1016 6.002 31.8856 6.014 31.6696 6.026C31.4656 6.038 31.2556 6.05 31.0396 6.062V5.306C31.5676 5.306 31.9636 5.282 32.2276 5.234C32.5036 5.186 32.7016 5.126 32.8216 5.054C32.9536 4.982 33.0616 4.904 33.1456 4.82H33.6856C33.6976 4.94 33.7096 5.084 33.7216 5.252C33.7336 5.408 33.7456 5.588 33.7576 5.792C34.1176 5.468 34.5436 5.21 35.0356 5.018C35.5396 4.814 36.0436 4.712 36.5476 4.712C37.2436 4.712 37.8916 4.892 38.4916 5.252C39.0916 5.612 39.5776 6.128 39.9496 6.8C40.3216 7.46 40.5076 8.252 40.5076 9.176C40.5076 10.196 40.2916 11.09 39.8596 11.858C39.4396 12.626 38.8816 13.226 38.1856 13.658C37.4896 14.078 36.7336 14.288 35.9176 14.288C35.4976 14.288 35.1076 14.234 34.7476 14.126C34.3996 14.03 34.0696 13.886 33.7576 13.694V16.682C33.7576 16.922 33.7516 17.132 33.7396 17.312C33.7396 17.504 33.7216 17.702 33.6856 17.906C33.8776 17.894 34.0636 17.882 34.2436 17.87C34.4356 17.87 34.6276 17.864 34.8196 17.852V18.59H31.1476ZM35.8816 13.568C36.4576 13.568 36.9496 13.394 37.3576 13.046C37.7776 12.686 38.0956 12.2 38.3116 11.588C38.5396 10.964 38.6536 10.256 38.6536 9.464C38.6536 8.816 38.5576 8.198 38.3656 7.61C38.1856 7.01 37.8916 6.524 37.4836 6.152C37.0876 5.78 36.5596 5.594 35.8996 5.594C35.4916 5.594 35.0956 5.696 34.7116 5.9C34.3396 6.092 34.0276 6.326 33.7756 6.602C33.7756 6.65 33.7756 6.722 33.7756 6.818C33.7876 6.902 33.7936 7.058 33.7936 7.286C33.7936 7.502 33.7936 7.832 33.7936 8.276C33.7936 8.708 33.7876 9.296 33.7756 10.04C33.7756 10.784 33.7756 11.726 33.7756 12.866C34.0756 13.094 34.3996 13.268 34.7476 13.388C35.1076 13.508 35.4856 13.568 35.8816 13.568ZM51.0983 14.18L47.8763 4.604C47.6723 3.968 47.5103 3.47 47.3903 3.11C47.2703 2.738 47.1803 2.42 47.1203 2.156C46.9523 2.168 46.7843 2.174 46.6163 2.174C46.4483 2.174 46.2803 2.18 46.1123 2.192V1.4H50.4863V1.994C49.7903 2.03 49.3703 2.186 49.2263 2.462C49.0943 2.738 49.1243 3.236 49.3163 3.956C49.5203 4.748 49.7423 5.462 49.9823 6.098C50.2223 6.734 50.4563 7.418 50.6843 8.15C50.8523 8.69 51.0203 9.188 51.1883 9.644C51.3683 10.1 51.5483 10.61 51.7283 11.174H51.7643C51.8243 10.97 51.8843 10.754 51.9443 10.526C52.0163 10.298 52.0883 10.076 52.1603 9.86C52.2323 9.644 52.2983 9.446 52.3583 9.266C52.4183 9.074 52.4663 8.918 52.5023 8.798C52.8383 7.73 53.1683 6.698 53.4923 5.702C53.8283 4.694 54.1223 3.812 54.3743 3.056C54.6263 2.288 54.8003 1.724 54.8963 1.364H55.4723C55.5803 1.76 55.7363 2.264 55.9403 2.876C56.1443 3.488 56.3603 4.13 56.5883 4.802C56.8163 5.474 57.0263 6.11 57.2183 6.71C57.4223 7.31 57.5843 7.79 57.7043 8.15C57.8723 8.69 58.0463 9.224 58.2263 9.752C58.4183 10.28 58.5923 10.826 58.7483 11.39H58.8023C58.9103 11.042 59.0243 10.67 59.1443 10.274C59.2763 9.878 59.4083 9.476 59.5403 9.068C59.8523 8.18 60.1043 7.436 60.2963 6.836C60.5003 6.236 60.6623 5.738 60.7823 5.342C60.9143 4.946 61.0223 4.604 61.1063 4.316C61.2023 4.016 61.2983 3.728 61.3943 3.452C61.4663 3.248 61.5443 3.032 61.6283 2.804C61.7243 2.564 61.8323 2.342 61.9523 2.138C61.7123 2.15 61.4723 2.162 61.2323 2.174C60.9923 2.174 60.7523 2.18 60.5123 2.192V1.4H64.1663V1.994C63.7583 2.042 63.4343 2.132 63.1943 2.264C62.9663 2.396 62.7623 2.642 62.5823 3.002C62.4023 3.362 62.1863 3.914 61.9343 4.658C61.3823 6.29 60.8423 7.898 60.3143 9.482C59.7983 11.054 59.2583 12.62 58.6943 14.18H58.1543L55.4183 6.368C55.3103 6.056 55.2023 5.75 55.0943 5.45C54.9983 5.15 54.8963 4.85 54.7883 4.55C54.6923 4.85 54.5903 5.15 54.4823 5.45C54.3863 5.75 54.2903 6.05 54.1943 6.35L51.6203 14.18H51.0983ZM64.3916 13.46C64.7636 13.46 65.0216 13.37 65.1656 13.19C65.3096 12.998 65.3936 12.74 65.4176 12.416C65.4416 12.08 65.4536 11.696 65.4536 11.264V7.16C65.4536 6.968 65.4596 6.788 65.4716 6.62C65.4836 6.44 65.5016 6.23 65.5256 5.99C65.3096 6.002 65.0936 6.014 64.8776 6.026C64.6736 6.038 64.4636 6.05 64.2476 6.062V5.306C64.7756 5.306 65.1836 5.282 65.4716 5.234C65.7596 5.186 65.9756 5.126 66.1196 5.054C66.2756 4.982 66.3956 4.904 66.4796 4.82H67.0016V12.092C67.0016 12.332 66.9956 12.548 66.9836 12.74C66.9836 12.92 66.9656 13.112 66.9296 13.316C67.1216 13.304 67.3076 13.298 67.4876 13.298C67.6796 13.286 67.8716 13.274 68.0636 13.262V14H64.3916V13.46ZM66.1196 3.038C65.8676 3.038 65.6456 2.936 65.4536 2.732C65.2616 2.528 65.1656 2.276 65.1656 1.976C65.1656 1.676 65.2616 1.424 65.4536 1.22C65.6576 1.004 65.8856 0.895999 66.1376 0.895999C66.4136 0.895999 66.6416 1.004 66.8216 1.22C67.0136 1.424 67.1096 1.676 67.1096 1.976C67.1096 2.276 67.0076 2.528 66.8036 2.732C66.6116 2.936 66.3836 3.038 66.1196 3.038ZM69.4541 14V13.46C69.8261 13.46 70.0841 13.37 70.2281 13.19C70.3721 12.998 70.4561 12.74 70.4801 12.416C70.5041 12.08 70.5161 11.696 70.5161 11.264L70.5341 7.16C70.5341 6.968 70.5341 6.776 70.5341 6.584C70.5461 6.392 70.5701 6.194 70.6061 5.99C70.3901 6.002 70.1741 6.014 69.9581 6.026C69.7541 6.038 69.5441 6.05 69.3281 6.062V5.306C69.8561 5.306 70.2521 5.282 70.5161 5.234C70.7921 5.186 70.9961 5.126 71.1281 5.054C71.2601 4.982 71.3681 4.904 71.4521 4.82H71.9741C71.9861 4.904 71.9921 5 71.9921 5.108C72.0041 5.216 72.0161 5.336 72.0281 5.468C72.0401 5.6 72.0461 5.75 72.0461 5.918C72.3101 5.69 72.5981 5.486 72.9101 5.306C73.2341 5.126 73.5701 4.982 73.9181 4.874C74.2781 4.766 74.6321 4.712 74.9801 4.712C76.0241 4.712 76.7861 5.042 77.2661 5.702C77.7461 6.35 77.9861 7.364 77.9861 8.744V12.092C77.9861 12.332 77.9801 12.548 77.9681 12.74C77.9681 12.92 77.9501 13.112 77.9141 13.316C78.1061 13.304 78.2921 13.298 78.4721 13.298C78.6641 13.286 78.8561 13.274 79.0481 13.262V14H75.3761V13.46C75.7481 13.46 76.0061 13.37 76.1501 13.19C76.2941 12.998 76.3781 12.74 76.4021 12.416C76.4261 12.08 76.4381 11.696 76.4381 11.264V8.744C76.4261 7.712 76.2521 6.932 75.9161 6.404C75.5921 5.876 75.0761 5.618 74.3681 5.63C73.9361 5.642 73.5101 5.756 73.0901 5.972C72.6821 6.188 72.3401 6.464 72.0641 6.8C72.0761 6.896 72.0821 7.004 72.0821 7.124C72.0821 7.244 72.0821 7.37 72.0821 7.502L72.0641 12.092C72.0641 12.332 72.0581 12.548 72.0461 12.74C72.0461 12.92 72.0281 13.112 71.9921 13.316C72.1841 13.304 72.3701 13.298 72.5501 13.298C72.7421 13.286 72.9341 13.274 73.1261 13.262V14H69.4541ZM84.7437 14.288C83.9157 14.288 83.1657 14.096 82.4937 13.712C81.8337 13.316 81.3117 12.764 80.9277 12.056C80.5437 11.336 80.3517 10.49 80.3517 9.518C80.3517 8.678 80.5377 7.892 80.9097 7.16C81.2937 6.428 81.8277 5.84 82.5117 5.396C83.1957 4.94 83.9877 4.712 84.8877 4.712C85.3917 4.712 85.8597 4.796 86.2917 4.964C86.7357 5.12 87.1257 5.366 87.4617 5.702C87.7977 6.026 88.0617 6.44 88.2537 6.944C88.4457 7.436 88.5417 8.018 88.5417 8.69L82.2057 8.798C82.2057 9.71 82.3017 10.514 82.4937 11.21C82.6977 11.894 83.0217 12.428 83.4657 12.812C83.9097 13.184 84.4797 13.37 85.1757 13.37C85.5477 13.37 85.9257 13.304 86.3097 13.172C86.7057 13.04 87.0717 12.86 87.4077 12.632C87.7437 12.404 88.0137 12.152 88.2177 11.876L88.6497 12.236C88.3257 12.74 87.9357 13.142 87.4797 13.442C87.0237 13.742 86.5557 13.958 86.0757 14.09C85.5957 14.222 85.1517 14.288 84.7437 14.288ZM82.2597 8.042H86.8497C86.8497 7.61 86.7837 7.196 86.6517 6.8C86.5317 6.392 86.3277 6.062 86.0397 5.81C85.7517 5.546 85.3737 5.414 84.9057 5.414C84.2097 5.414 83.6277 5.624 83.1597 6.044C82.7037 6.452 82.4037 7.118 82.2597 8.042Z" fill="#222529"/>
</svg>
