<svg width="873" height="540" viewBox="0 0 873 540" fill="none" xmlns="http://www.w3.org/2000/svg">
<rect width="873" height="540" fill="#202020"/>
<path d="M447.256 192.979C445.719 192.054 443.846 191.986 442.244 192.795L437.637 195.123C436.769 195.562 435.731 195.564 434.862 195.123L426.089 190.687C425.364 190.32 424.569 190.138 423.775 190.133C423.767 190.133 423.758 190.129 423.75 190.129C423.742 190.129 423.733 190.133 423.725 190.133C422.929 190.138 422.135 190.32 421.41 190.687L414.229 194.319C411.75 195.573 410.208 198.09 410.208 200.885V221.765C410.208 223.626 411.156 225.309 412.744 226.263C414.283 227.188 416.156 227.256 417.756 226.447L422.362 224.119C423.229 223.678 424.267 223.678 425.137 224.119L433.91 228.555C434.631 228.92 435.423 229.1 436.215 229.104C436.227 229.104 436.237 229.113 436.25 229.113C436.262 229.113 436.273 229.106 436.285 229.104C437.077 229.098 437.867 228.918 438.589 228.555L445.771 224.923C448.25 223.669 449.792 221.152 449.792 218.357V197.477C449.792 195.618 448.844 193.935 447.256 192.979ZM421.41 222.295L416.804 224.623C415.844 225.112 414.758 225.071 413.831 224.513C412.869 223.934 412.292 222.906 412.292 221.767V200.887C412.292 198.864 413.398 197.048 415.181 196.145L422.362 192.514C422.473 192.458 422.594 192.429 422.708 192.388V221.86C422.262 221.95 421.825 222.085 421.41 222.295ZM426.089 222.295C425.675 222.085 425.237 221.95 424.792 221.86V192.388C424.906 192.429 425.027 192.458 425.137 192.514L433.91 196.949C434.325 197.159 434.762 197.294 435.208 197.384V226.856C435.094 226.815 434.973 226.786 434.862 226.731L426.089 222.295ZM447.708 218.359C447.708 220.382 446.602 222.198 444.819 223.101L437.637 226.733C437.527 226.788 437.406 226.817 437.292 226.858V197.386C437.737 197.296 438.175 197.161 438.589 196.951L443.196 194.623C444.158 194.134 445.244 194.175 446.169 194.733C447.131 195.312 447.708 196.34 447.708 197.479V218.359Z" fill="#B7926A"/>
<path d="M309.472 306.576C307.192 306.576 305.236 306.192 303.604 305.424C301.972 304.656 300.64 303.636 299.608 302.364C298.6 301.068 297.856 299.64 297.376 298.08C296.896 296.52 296.656 294.96 296.656 293.4C296.656 291.888 296.908 290.364 297.412 288.828C297.916 287.268 298.684 285.84 299.716 284.544C300.772 283.248 302.08 282.204 303.64 281.412C305.224 280.62 307.072 280.224 309.184 280.224C311.392 280.224 313.3 280.62 314.908 281.412C316.516 282.204 317.836 283.26 318.868 284.58C319.924 285.876 320.704 287.292 321.208 288.828C321.736 290.364 322 291.888 322 293.4C322 294.888 321.748 296.412 321.244 297.972C320.74 299.508 319.96 300.936 318.904 302.256C317.872 303.552 316.576 304.596 315.016 305.388C313.456 306.18 311.608 306.576 309.472 306.576ZM309.544 305.1C311.032 305.1 312.328 304.788 313.432 304.164C314.536 303.516 315.448 302.664 316.168 301.608C316.912 300.528 317.464 299.34 317.824 298.044C318.208 296.724 318.4 295.404 318.4 294.084C318.4 292.596 318.196 291.12 317.788 289.656C317.38 288.192 316.78 286.86 315.988 285.66C315.196 284.46 314.212 283.5 313.036 282.78C311.884 282.036 310.564 281.664 309.076 281.664C307.588 281.664 306.28 281.988 305.152 282.636C304.048 283.284 303.124 284.148 302.38 285.228C301.66 286.284 301.108 287.472 300.724 288.792C300.364 290.088 300.184 291.408 300.184 292.752C300.184 294.072 300.364 295.452 300.724 296.892C301.108 298.332 301.684 299.676 302.452 300.924C303.22 302.172 304.192 303.18 305.368 303.948C306.544 304.716 307.936 305.1 309.544 305.1ZM332.651 281.988C331.859 281.988 331.283 282.156 330.923 282.492C330.587 282.828 330.383 283.224 330.311 283.68C330.239 284.112 330.203 284.496 330.203 284.832V293.904C330.203 295.248 330.287 296.556 330.455 297.828C330.647 299.076 330.995 300.204 331.499 301.212C332.003 302.22 332.747 303.024 333.731 303.624C334.739 304.224 336.047 304.524 337.655 304.524C339.383 304.524 340.787 304.116 341.867 303.3C342.971 302.484 343.775 301.356 344.279 299.916C344.807 298.476 345.083 296.82 345.107 294.948L345.215 284.832C345.215 284.352 345.227 283.896 345.251 283.464C345.275 283.008 345.299 282.6 345.323 282.24C344.891 282.264 344.459 282.288 344.027 282.312C343.619 282.336 343.199 282.36 342.767 282.384V280.8H349.463V281.988C348.551 282.012 347.927 282.216 347.591 282.6C347.255 282.984 347.063 283.5 347.015 284.148C346.991 284.796 346.967 285.552 346.943 286.416L346.871 294.768C346.871 296.328 346.703 297.816 346.367 299.232C346.031 300.648 345.479 301.908 344.711 303.012C343.967 304.116 342.971 304.992 341.723 305.64C340.499 306.264 338.987 306.576 337.187 306.576C335.267 306.576 333.647 306.324 332.327 305.82C331.031 305.316 329.987 304.536 329.195 303.48C328.427 302.424 327.875 301.092 327.539 299.484C327.203 297.876 327.035 295.956 327.035 293.724V286.416C327.035 285.792 327.047 285.06 327.071 284.22C327.119 283.356 327.155 282.696 327.179 282.24C326.747 282.264 326.315 282.288 325.883 282.312C325.451 282.312 325.019 282.324 324.587 282.348V280.8H332.651V281.988ZM352.587 306V304.812C353.499 304.764 354.123 304.56 354.459 304.2C354.795 303.816 354.975 303.3 354.999 302.652C355.047 301.98 355.071 301.224 355.071 300.384V284.832C355.071 284.352 355.083 283.896 355.107 283.464C355.131 283.008 355.155 282.6 355.179 282.24C354.747 282.264 354.315 282.288 353.883 282.312C353.451 282.336 353.019 282.36 352.587 282.384V280.8C353.931 280.776 355.287 280.752 356.655 280.728C358.047 280.704 359.439 280.716 360.831 280.764C363.159 280.788 365.031 281.064 366.447 281.592C367.887 282.096 368.943 282.828 369.615 283.788C370.287 284.724 370.623 285.864 370.623 287.208C370.647 288.144 370.467 289.104 370.083 290.088C369.723 291.048 369.051 291.912 368.067 292.68C367.107 293.448 365.715 294.024 363.891 294.408C364.371 294.744 364.791 295.176 365.151 295.704C365.511 296.232 365.919 296.844 366.375 297.54L368.823 301.392C369.231 302.04 369.627 302.628 370.011 303.156C370.395 303.66 370.839 304.068 371.343 304.38C371.847 304.668 372.471 304.812 373.215 304.812V306H368.679C367.983 305.376 367.395 304.752 366.915 304.128C366.459 303.504 365.979 302.796 365.475 302.004L363.063 298.152C362.751 297.648 362.391 297.072 361.983 296.424C361.599 295.752 361.155 295.188 360.651 294.732C360.267 294.756 359.859 294.768 359.427 294.768C359.019 294.768 358.611 294.756 358.203 294.732V301.716C358.203 302.364 358.191 302.928 358.167 303.408C358.167 303.864 358.143 304.248 358.095 304.56C358.383 304.536 358.671 304.524 358.959 304.524C359.247 304.5 359.535 304.476 359.823 304.452C360.111 304.428 360.399 304.416 360.687 304.416V306H352.587ZM360.435 293.4C361.755 293.352 362.907 293.136 363.891 292.752C364.899 292.368 365.691 291.756 366.267 290.916C366.843 290.076 367.131 288.972 367.131 287.604C367.131 286.692 366.999 285.9 366.735 285.228C366.495 284.532 366.111 283.956 365.583 283.5C365.055 283.044 364.383 282.708 363.567 282.492C362.751 282.252 361.791 282.132 360.687 282.132C359.799 282.132 359.175 282.312 358.815 282.672C358.479 283.032 358.287 283.536 358.239 284.184C358.215 284.808 358.203 285.552 358.203 286.416V293.328C358.587 293.352 358.947 293.376 359.283 293.4C359.643 293.424 360.027 293.424 360.435 293.4ZM384.779 306V304.812C385.691 304.764 386.315 304.56 386.651 304.2C386.987 303.816 387.167 303.3 387.191 302.652C387.239 301.98 387.263 301.224 387.263 300.384V284.832C387.263 284.352 387.275 283.896 387.299 283.464C387.323 283.008 387.347 282.6 387.371 282.24C386.939 282.264 386.507 282.288 386.075 282.312C385.643 282.336 385.211 282.36 384.779 282.384V280.8H392.879V281.988C391.991 282.012 391.367 282.216 391.007 282.6C390.671 282.984 390.479 283.5 390.431 284.148C390.407 284.796 390.395 285.552 390.395 286.416V301.86C390.395 302.508 390.383 303.06 390.359 303.516C390.359 303.972 390.335 304.356 390.287 304.668L397.019 304.56C398.531 304.536 399.671 304.056 400.439 303.12C401.231 302.184 401.627 300.66 401.627 298.548H402.851L402.635 306H384.779ZM417.445 306.576C415.165 306.576 413.209 306.192 411.577 305.424C409.945 304.656 408.613 303.636 407.581 302.364C406.573 301.068 405.829 299.64 405.349 298.08C404.869 296.52 404.629 294.96 404.629 293.4C404.629 291.888 404.881 290.364 405.385 288.828C405.889 287.268 406.657 285.84 407.689 284.544C408.745 283.248 410.053 282.204 411.613 281.412C413.197 280.62 415.045 280.224 417.157 280.224C419.365 280.224 421.273 280.62 422.881 281.412C424.489 282.204 425.809 283.26 426.841 284.58C427.897 285.876 428.677 287.292 429.181 288.828C429.709 290.364 429.973 291.888 429.973 293.4C429.973 294.888 429.721 296.412 429.217 297.972C428.713 299.508 427.933 300.936 426.877 302.256C425.845 303.552 424.549 304.596 422.989 305.388C421.429 306.18 419.581 306.576 417.445 306.576ZM417.517 305.1C419.005 305.1 420.301 304.788 421.405 304.164C422.509 303.516 423.421 302.664 424.141 301.608C424.885 300.528 425.437 299.34 425.797 298.044C426.181 296.724 426.373 295.404 426.373 294.084C426.373 292.596 426.169 291.12 425.761 289.656C425.353 288.192 424.753 286.86 423.961 285.66C423.169 284.46 422.185 283.5 421.009 282.78C419.857 282.036 418.537 281.664 417.049 281.664C415.561 281.664 414.253 281.988 413.125 282.636C412.021 283.284 411.097 284.148 410.353 285.228C409.633 286.284 409.081 287.472 408.697 288.792C408.337 290.088 408.157 291.408 408.157 292.752C408.157 294.072 408.337 295.452 408.697 296.892C409.081 298.332 409.657 299.676 410.425 300.924C411.193 302.172 412.165 303.18 413.341 303.948C414.517 304.716 415.909 305.1 417.517 305.1ZM453.508 288.828C453.268 286.572 452.476 284.82 451.132 283.572C449.812 282.324 448.108 281.7 446.02 281.7C444.748 281.7 443.548 281.976 442.42 282.528C441.316 283.056 440.344 283.824 439.504 284.832C438.664 285.84 438.004 287.052 437.524 288.468C437.044 289.884 436.804 291.48 436.804 293.256C436.804 295.512 437.236 297.504 438.1 299.232C438.964 300.96 440.128 302.304 441.592 303.264C443.056 304.224 444.676 304.704 446.452 304.704C448.012 304.704 449.548 304.356 451.06 303.66C452.572 302.94 453.808 301.908 454.768 300.564L455.704 301.32C454.672 302.736 453.556 303.828 452.356 304.596C451.156 305.364 449.956 305.88 448.756 306.144C447.58 306.432 446.5 306.576 445.516 306.576C443.716 306.576 442.06 306.252 440.548 305.604C439.06 304.956 437.764 304.056 436.66 302.904C435.58 301.728 434.74 300.372 434.14 298.836C433.564 297.276 433.276 295.596 433.276 293.796C433.276 292.092 433.528 290.436 434.032 288.828C434.56 287.22 435.34 285.768 436.372 284.472C437.404 283.176 438.7 282.144 440.26 281.376C441.844 280.608 443.68 280.224 445.768 280.224C447.112 280.224 448.384 280.404 449.584 280.764C450.784 281.124 451.936 281.676 453.04 282.42L452.86 280.476H454.804V288.828H453.508ZM456.29 306V304.812C457.01 304.812 457.562 304.62 457.946 304.236C458.33 303.852 458.642 303.324 458.882 302.652C459.146 301.98 459.446 301.2 459.782 300.312L467.198 280.116H468.062L476.09 300.6C476.282 301.104 476.498 301.752 476.738 302.544C476.978 303.336 477.074 304.008 477.026 304.56C477.434 304.536 477.842 304.512 478.25 304.488C478.658 304.464 479.066 304.44 479.474 304.416V306H471.23V304.812C472.142 304.788 472.742 304.584 473.03 304.2C473.318 303.816 473.426 303.36 473.354 302.832C473.282 302.304 473.162 301.824 472.994 301.392L471.734 298.008L462.374 298.224L461.114 302.076C460.946 302.652 460.79 303.108 460.646 303.444C460.526 303.78 460.382 304.152 460.214 304.56C460.694 304.536 461.162 304.512 461.618 304.488C462.098 304.464 462.566 304.44 463.022 304.416V306H456.29ZM462.914 296.676H471.23L468.674 289.8C468.41 289.056 468.134 288.324 467.846 287.604C467.582 286.86 467.318 286.116 467.054 285.372H466.982C466.742 286.044 466.49 286.716 466.226 287.388C465.986 288.06 465.734 288.744 465.47 289.44L462.914 296.676ZM499.071 288.396C499.047 286.98 498.903 285.804 498.639 284.868C498.375 283.932 497.907 283.236 497.235 282.78C496.587 282.3 495.639 282.072 494.391 282.096H491.331L491.295 301.716C491.295 302.364 491.283 302.928 491.259 303.408C491.259 303.864 491.235 304.248 491.187 304.56C491.691 304.536 492.183 304.512 492.663 304.488C493.167 304.464 493.671 304.44 494.175 304.416V306H485.715V304.812C486.627 304.764 487.239 304.548 487.551 304.164C487.887 303.78 488.067 303.264 488.091 302.616C488.139 301.944 488.163 301.2 488.163 300.384L488.199 282.132L484.491 282.168C482.979 282.168 481.911 282.672 481.287 283.68C480.663 284.688 480.351 286.26 480.351 288.396H479.019L479.235 280.8H500.223L500.439 288.396H499.071ZM511.399 281.988C510.511 282.012 509.887 282.216 509.527 282.6C509.191 282.984 508.999 283.5 508.951 284.148C508.927 284.796 508.915 285.552 508.915 286.416V301.716C508.915 302.364 508.903 302.928 508.879 303.408C508.879 303.864 508.855 304.248 508.807 304.56C509.239 304.536 509.671 304.512 510.103 304.488C510.535 304.464 510.967 304.44 511.399 304.416V306H503.299V304.812C504.211 304.764 504.835 304.56 505.171 304.2C505.507 303.816 505.687 303.3 505.711 302.652C505.759 301.98 505.783 301.224 505.783 300.384V284.832C505.783 284.352 505.795 283.896 505.819 283.464C505.843 283.008 505.867 282.6 505.891 282.24C505.459 282.264 505.027 282.288 504.595 282.312C504.163 282.336 503.731 282.36 503.299 282.384V280.8H511.399V281.988ZM527.599 306.576C525.319 306.576 523.363 306.192 521.731 305.424C520.099 304.656 518.767 303.636 517.735 302.364C516.727 301.068 515.983 299.64 515.503 298.08C515.023 296.52 514.783 294.96 514.783 293.4C514.783 291.888 515.035 290.364 515.539 288.828C516.043 287.268 516.811 285.84 517.843 284.544C518.899 283.248 520.207 282.204 521.767 281.412C523.351 280.62 525.199 280.224 527.311 280.224C529.519 280.224 531.427 280.62 533.035 281.412C534.643 282.204 535.963 283.26 536.995 284.58C538.051 285.876 538.831 287.292 539.335 288.828C539.863 290.364 540.127 291.888 540.127 293.4C540.127 294.888 539.875 296.412 539.371 297.972C538.867 299.508 538.087 300.936 537.031 302.256C535.999 303.552 534.703 304.596 533.143 305.388C531.583 306.18 529.735 306.576 527.599 306.576ZM527.671 305.1C529.159 305.1 530.455 304.788 531.559 304.164C532.663 303.516 533.575 302.664 534.295 301.608C535.039 300.528 535.591 299.34 535.951 298.044C536.335 296.724 536.527 295.404 536.527 294.084C536.527 292.596 536.323 291.12 535.915 289.656C535.507 288.192 534.907 286.86 534.115 285.66C533.323 284.46 532.339 283.5 531.163 282.78C530.011 282.036 528.691 281.664 527.203 281.664C525.715 281.664 524.407 281.988 523.279 282.636C522.175 283.284 521.251 284.148 520.507 285.228C519.787 286.284 519.235 287.472 518.851 288.792C518.491 290.088 518.311 291.408 518.311 292.752C518.311 294.072 518.491 295.452 518.851 296.892C519.235 298.332 519.811 299.676 520.579 300.924C521.347 302.172 522.319 303.18 523.495 303.948C524.671 304.716 526.063 305.1 527.671 305.1ZM563.129 306.576L548.765 287.28C548.549 286.992 548.333 286.716 548.117 286.452C547.925 286.164 547.721 285.876 547.505 285.588H547.469L547.577 300.996C547.577 301.596 547.577 302.196 547.577 302.796C547.577 303.396 547.553 303.984 547.505 304.56C547.937 304.536 548.369 304.512 548.801 304.488C549.233 304.464 549.665 304.44 550.097 304.416V306H543.509V304.812C544.253 304.812 544.781 304.656 545.093 304.344C545.429 304.008 545.645 303.624 545.741 303.192C545.837 302.736 545.885 302.328 545.885 301.968L545.921 284.652C545.921 284.244 545.921 283.836 545.921 283.428C545.921 283.02 545.921 282.624 545.921 282.24C545.537 282.264 545.141 282.288 544.733 282.312C544.325 282.336 543.917 282.36 543.509 282.384V280.8H547.793L561.293 298.872C561.605 299.28 561.905 299.688 562.193 300.096C562.505 300.504 562.817 300.912 563.129 301.32H563.165L563.201 284.832C563.201 284.352 563.213 283.896 563.237 283.464C563.261 283.008 563.285 282.6 563.309 282.24C562.877 282.264 562.445 282.288 562.013 282.312C561.581 282.336 561.149 282.36 560.717 282.384V280.8H567.341V281.988C566.453 282.012 565.841 282.216 565.505 282.6C565.169 282.984 564.989 283.5 564.965 284.148C564.941 284.796 564.929 285.552 564.929 286.416L564.857 306.576H563.129Z" fill="white"/>
<path d="M230.648 348.384C229.128 348.384 227.824 348.128 226.736 347.616C225.648 347.104 224.76 346.424 224.072 345.576C223.4 344.712 222.904 343.76 222.584 342.72C222.264 341.68 222.104 340.64 222.104 339.6C222.104 338.592 222.272 337.576 222.608 336.552C222.944 335.512 223.456 334.56 224.144 333.696C224.848 332.832 225.72 332.136 226.76 331.608C227.816 331.08 229.048 330.816 230.456 330.816C231.928 330.816 233.2 331.08 234.272 331.608C235.344 332.136 236.224 332.84 236.912 333.72C237.616 334.584 238.136 335.528 238.472 336.552C238.824 337.576 239 338.592 239 339.6C239 340.592 238.832 341.608 238.496 342.648C238.16 343.672 237.64 344.624 236.936 345.504C236.248 346.368 235.384 347.064 234.344 347.592C233.304 348.12 232.072 348.384 230.648 348.384ZM230.696 347.4C231.688 347.4 232.552 347.192 233.288 346.776C234.024 346.344 234.632 345.776 235.112 345.072C235.608 344.352 235.976 343.56 236.216 342.696C236.472 341.816 236.6 340.936 236.6 340.056C236.6 339.064 236.464 338.08 236.192 337.104C235.92 336.128 235.52 335.24 234.992 334.44C234.464 333.64 233.808 333 233.024 332.52C232.256 332.024 231.376 331.776 230.384 331.776C229.392 331.776 228.52 331.992 227.768 332.424C227.032 332.856 226.416 333.432 225.92 334.152C225.44 334.856 225.072 335.648 224.816 336.528C224.576 337.392 224.456 338.272 224.456 339.168C224.456 340.048 224.576 340.968 224.816 341.928C225.072 342.888 225.456 343.784 225.968 344.616C226.48 345.448 227.128 346.12 227.912 346.632C228.696 347.144 229.624 347.4 230.696 347.4ZM241.176 348V347.28C241.672 347.28 242.016 347.16 242.208 346.92C242.4 346.664 242.512 346.32 242.544 345.888C242.576 345.44 242.592 344.928 242.592 344.352L242.616 338.88C242.616 338.624 242.616 338.368 242.616 338.112C242.632 337.856 242.664 337.592 242.712 337.32C242.424 337.336 242.136 337.352 241.848 337.368C241.576 337.384 241.296 337.4 241.008 337.416V336.408C241.712 336.408 242.24 336.376 242.592 336.312C242.96 336.248 243.232 336.168 243.408 336.072C243.584 335.976 243.728 335.872 243.84 335.76H244.536C244.552 335.872 244.56 336 244.56 336.144C244.576 336.288 244.592 336.448 244.608 336.624C244.624 336.8 244.632 337 244.632 337.224C244.984 336.92 245.368 336.648 245.784 336.408C246.216 336.168 246.664 335.976 247.128 335.832C247.608 335.688 248.08 335.616 248.544 335.616C249.936 335.616 250.952 336.056 251.592 336.936C252.232 337.8 252.552 339.152 252.552 340.992V345.456C252.552 345.776 252.544 346.064 252.528 346.32C252.528 346.56 252.504 346.816 252.456 347.088C252.712 347.072 252.96 347.064 253.2 347.064C253.456 347.048 253.712 347.032 253.968 347.016V348H249.072V347.28C249.568 347.28 249.912 347.16 250.104 346.92C250.296 346.664 250.408 346.32 250.44 345.888C250.472 345.44 250.488 344.928 250.488 344.352V340.992C250.472 339.616 250.24 338.576 249.792 337.872C249.36 337.168 248.672 336.824 247.728 336.84C247.152 336.856 246.584 337.008 246.024 337.296C245.48 337.584 245.024 337.952 244.656 338.4C244.672 338.528 244.68 338.672 244.68 338.832C244.68 338.992 244.68 339.16 244.68 339.336L244.656 345.456C244.656 345.776 244.648 346.064 244.632 346.32C244.632 346.56 244.608 346.816 244.56 347.088C244.816 347.072 245.064 347.064 245.304 347.064C245.56 347.048 245.816 347.032 246.072 347.016V348H241.176ZM261.627 348.384C260.523 348.384 259.523 348.128 258.627 347.616C257.747 347.088 257.051 346.352 256.539 345.408C256.027 344.448 255.771 343.32 255.771 342.024C255.771 340.904 256.019 339.856 256.515 338.88C257.027 337.904 257.739 337.12 258.651 336.528C259.563 335.92 260.619 335.616 261.819 335.616C262.491 335.616 263.115 335.728 263.691 335.952C264.283 336.16 264.803 336.488 265.251 336.936C265.699 337.368 266.051 337.92 266.307 338.592C266.563 339.248 266.691 340.024 266.691 340.92L258.243 341.064C258.243 342.28 258.371 343.352 258.627 344.28C258.899 345.192 259.331 345.904 259.923 346.416C260.515 346.912 261.275 347.16 262.203 347.16C262.699 347.16 263.203 347.072 263.715 346.896C264.243 346.72 264.731 346.48 265.179 346.176C265.627 345.872 265.987 345.536 266.259 345.168L266.835 345.648C266.403 346.32 265.883 346.856 265.275 347.256C264.667 347.656 264.043 347.944 263.403 348.12C262.763 348.296 262.171 348.384 261.627 348.384ZM258.315 340.056H264.435C264.435 339.48 264.347 338.928 264.171 338.4C264.011 337.856 263.739 337.416 263.355 337.08C262.971 336.728 262.467 336.552 261.843 336.552C260.915 336.552 260.139 336.832 259.515 337.392C258.907 337.936 258.507 338.824 258.315 340.056ZM283.877 341.784C283.877 341.08 283.781 340.576 283.589 340.272C283.397 339.968 283.093 339.784 282.677 339.72C282.261 339.656 281.709 339.64 281.021 339.672L279.269 339.744V345.24C279.269 345.672 279.261 346.04 279.245 346.344C279.245 346.648 279.229 346.904 279.197 347.112L283.781 347.04C284.485 347.024 285.093 346.912 285.605 346.704C286.117 346.48 286.517 346.096 286.805 345.552C287.093 345.008 287.237 344.264 287.237 343.32H288.053L287.909 348H275.525V347.208C276.133 347.176 276.549 347.04 276.773 346.8C276.997 346.544 277.117 346.2 277.133 345.768C277.165 345.32 277.181 344.816 277.181 344.256V333.888C277.181 333.568 277.189 333.264 277.205 332.976C277.221 332.672 277.237 332.4 277.253 332.16C276.965 332.176 276.677 332.192 276.389 332.208C276.101 332.224 275.813 332.24 275.525 332.256V331.2H287.069L287.189 335.4H286.397C286.397 334.456 286.253 333.744 285.965 333.264C285.677 332.768 285.285 332.44 284.789 332.28C284.309 332.104 283.765 332.024 283.157 332.04L281.093 332.088C280.501 332.104 280.077 332.216 279.821 332.424C279.565 332.632 279.405 332.944 279.341 333.36C279.293 333.76 279.269 334.288 279.269 334.944V338.784L283.781 338.808L283.613 336.744H284.669V341.784H283.877ZM290.256 348V347.28C290.752 347.28 291.096 347.16 291.288 346.92C291.48 346.664 291.592 346.32 291.624 345.888C291.656 345.44 291.672 344.928 291.672 344.352L291.696 338.88C291.696 338.624 291.696 338.368 291.696 338.112C291.712 337.856 291.744 337.592 291.792 337.32C291.504 337.336 291.216 337.352 290.928 337.368C290.656 337.384 290.376 337.4 290.088 337.416V336.408C290.792 336.408 291.32 336.376 291.672 336.312C292.04 336.248 292.312 336.168 292.488 336.072C292.664 335.976 292.808 335.872 292.92 335.76H293.616C293.632 335.872 293.64 336 293.64 336.144C293.656 336.288 293.672 336.448 293.688 336.624C293.704 336.8 293.712 337 293.712 337.224C294.064 336.92 294.448 336.648 294.864 336.408C295.296 336.168 295.744 335.976 296.208 335.832C296.688 335.688 297.16 335.616 297.624 335.616C299.016 335.616 300.032 336.056 300.672 336.936C301.312 337.8 301.632 339.152 301.632 340.992V345.456C301.632 345.776 301.624 346.064 301.608 346.32C301.608 346.56 301.584 346.816 301.536 347.088C301.792 347.072 302.04 347.064 302.28 347.064C302.536 347.048 302.792 347.032 303.048 347.016V348H298.152V347.28C298.648 347.28 298.992 347.16 299.184 346.92C299.376 346.664 299.488 346.32 299.52 345.888C299.552 345.44 299.568 344.928 299.568 344.352V340.992C299.552 339.616 299.32 338.576 298.872 337.872C298.44 337.168 297.752 336.824 296.808 336.84C296.232 336.856 295.664 337.008 295.104 337.296C294.56 337.584 294.104 337.952 293.736 338.4C293.752 338.528 293.76 338.672 293.76 338.832C293.76 338.992 293.76 339.16 293.76 339.336L293.736 345.456C293.736 345.776 293.728 346.064 293.712 346.32C293.712 346.56 293.688 346.816 293.64 347.088C293.896 347.072 294.144 347.064 294.384 347.064C294.64 347.048 294.896 347.032 295.152 347.016V348H290.256ZM310.683 354.504C309.243 354.504 308.083 354.344 307.203 354.024C306.323 353.704 305.683 353.296 305.283 352.8C304.883 352.304 304.683 351.792 304.683 351.264C304.683 350.768 304.795 350.328 305.019 349.944C305.259 349.576 305.547 349.256 305.883 348.984C306.235 348.712 306.571 348.512 306.891 348.384C306.379 348.208 305.971 347.976 305.667 347.688C305.379 347.384 305.235 346.984 305.235 346.488C305.235 345.928 305.459 345.408 305.907 344.928C306.355 344.432 306.931 344.128 307.635 344.016C306.899 343.664 306.307 343.176 305.859 342.552C305.427 341.928 305.211 341.2 305.211 340.368C305.211 339.408 305.459 338.576 305.955 337.872C306.451 337.152 307.083 336.6 307.851 336.216C308.635 335.816 309.443 335.616 310.275 335.616C310.803 335.616 311.331 335.696 311.859 335.856C312.387 336 312.875 336.216 313.323 336.504C313.483 336.056 313.707 335.656 313.995 335.304C314.299 334.952 314.643 334.68 315.027 334.488C315.411 334.28 315.811 334.176 316.227 334.176C316.643 334.176 316.955 334.288 317.163 334.512C317.387 334.72 317.499 335.008 317.499 335.376C317.499 335.488 317.467 335.624 317.403 335.784C317.339 335.944 317.227 336.08 317.067 336.192C316.923 336.304 316.723 336.36 316.467 336.36C316.195 336.36 315.971 336.28 315.795 336.12C315.619 335.96 315.507 335.76 315.459 335.52C315.059 335.584 314.747 335.776 314.523 336.096C314.299 336.4 314.147 336.736 314.067 337.104C314.451 337.456 314.755 337.88 314.979 338.376C315.219 338.872 315.339 339.4 315.339 339.96C315.339 340.856 315.099 341.656 314.619 342.36C314.155 343.064 313.539 343.616 312.771 344.016C312.003 344.4 311.171 344.592 310.275 344.592C309.971 344.592 309.707 344.576 309.483 344.544C309.259 344.496 308.987 344.472 308.667 344.472C308.075 344.472 307.595 344.616 307.227 344.904C306.859 345.192 306.731 345.536 306.843 345.936C306.971 346.32 307.363 346.568 308.019 346.68C308.675 346.776 309.555 346.848 310.659 346.896C311.891 346.944 312.947 347.088 313.827 347.328C314.707 347.568 315.379 347.936 315.843 348.432C316.323 348.944 316.563 349.632 316.563 350.496C316.563 351.136 316.387 351.704 316.035 352.2C315.699 352.712 315.243 353.136 314.667 353.472C314.107 353.808 313.475 354.064 312.771 354.24C312.083 354.416 311.387 354.504 310.683 354.504ZM310.659 353.568C312.035 353.568 313.107 353.312 313.875 352.8C314.643 352.288 315.027 351.688 315.027 351C315.027 350.408 314.827 349.952 314.427 349.632C314.027 349.328 313.483 349.112 312.795 348.984C312.107 348.872 311.315 348.808 310.419 348.792C309.987 348.776 309.563 348.752 309.147 348.72C308.731 348.704 308.331 348.664 307.947 348.6C307.515 348.888 307.179 349.24 306.939 349.656C306.699 350.072 306.579 350.512 306.579 350.976C306.579 351.76 306.947 352.384 307.683 352.848C308.435 353.328 309.427 353.568 310.659 353.568ZM310.347 343.728C310.939 343.728 311.427 343.584 311.811 343.296C312.211 343.008 312.507 342.616 312.699 342.12C312.907 341.624 313.011 341.064 313.011 340.44C313.011 339.736 312.907 339.08 312.699 338.472C312.491 337.864 312.179 337.376 311.763 337.008C311.363 336.64 310.851 336.456 310.227 336.456C309.363 336.456 308.691 336.784 308.211 337.44C307.747 338.08 307.515 338.88 307.515 339.84C307.515 340.608 307.627 341.288 307.851 341.88C308.075 342.456 308.395 342.912 308.811 343.248C309.243 343.568 309.755 343.728 310.347 343.728ZM318.576 347.28C319.072 347.28 319.416 347.16 319.608 346.92C319.8 346.664 319.912 346.32 319.944 345.888C319.976 345.44 319.992 344.928 319.992 344.352V333C319.992 332.744 319.992 332.504 319.992 332.28C320.008 332.04 320.032 331.76 320.064 331.44C319.776 331.456 319.488 331.472 319.2 331.488C318.928 331.504 318.648 331.52 318.36 331.536V330.528C319.064 330.528 319.608 330.496 319.992 330.432C320.392 330.368 320.688 330.288 320.88 330.192C321.088 330.096 321.248 329.992 321.36 329.88H322.056L322.08 345.456C322.08 345.776 322.072 346.064 322.056 346.32C322.04 346.56 322.008 346.816 321.96 347.088C322.216 347.072 322.464 347.064 322.704 347.064C322.96 347.048 323.216 347.032 323.472 347.016V348H318.576V347.28ZM331.228 348.384C330.124 348.384 329.124 348.128 328.228 347.616C327.348 347.088 326.652 346.352 326.14 345.408C325.628 344.448 325.372 343.32 325.372 342.024C325.372 340.904 325.62 339.856 326.116 338.88C326.628 337.904 327.34 337.12 328.252 336.528C329.164 335.92 330.22 335.616 331.42 335.616C332.092 335.616 332.716 335.728 333.292 335.952C333.884 336.16 334.404 336.488 334.852 336.936C335.3 337.368 335.652 337.92 335.908 338.592C336.164 339.248 336.292 340.024 336.292 340.92L327.844 341.064C327.844 342.28 327.972 343.352 328.228 344.28C328.5 345.192 328.932 345.904 329.524 346.416C330.116 346.912 330.876 347.16 331.804 347.16C332.3 347.16 332.804 347.072 333.316 346.896C333.844 346.72 334.332 346.48 334.78 346.176C335.228 345.872 335.588 345.536 335.86 345.168L336.436 345.648C336.004 346.32 335.484 346.856 334.876 347.256C334.268 347.656 333.644 347.944 333.004 348.12C332.364 348.296 331.772 348.384 331.228 348.384ZM327.916 340.056H334.036C334.036 339.48 333.948 338.928 333.772 338.4C333.612 337.856 333.34 337.416 332.956 337.08C332.572 336.728 332.068 336.552 331.444 336.552C330.516 336.552 329.74 336.832 329.116 337.392C328.508 337.936 328.108 338.824 327.916 340.056ZM354.558 336.288C354.51 335.52 354.326 334.792 354.006 334.104C353.686 333.416 353.222 332.856 352.614 332.424C352.006 331.992 351.23 331.776 350.286 331.776C349.294 331.776 348.534 332.056 348.006 332.616C347.478 333.176 347.214 333.832 347.214 334.584C347.214 335.256 347.406 335.824 347.79 336.288C348.174 336.736 348.67 337.136 349.278 337.488C349.902 337.824 350.558 338.152 351.246 338.472C351.854 338.744 352.462 339.04 353.07 339.36C353.678 339.664 354.23 340.016 354.726 340.416C355.222 340.816 355.614 341.296 355.902 341.856C356.206 342.4 356.358 343.056 356.358 343.824C356.358 344.704 356.134 345.488 355.686 346.176C355.254 346.864 354.622 347.408 353.79 347.808C352.958 348.192 351.942 348.384 350.742 348.384C350.022 348.384 349.278 348.28 348.51 348.072C347.742 347.864 347.062 347.56 346.47 347.16L346.59 348.192H345.342L345.198 343.08H346.134C346.214 344.488 346.702 345.56 347.598 346.296C348.494 347.016 349.574 347.376 350.838 347.376C351.462 347.376 352.038 347.264 352.566 347.04C353.094 346.8 353.51 346.456 353.814 346.008C354.134 345.56 354.294 345.016 354.294 344.376C354.294 343.656 354.102 343.056 353.718 342.576C353.334 342.096 352.838 341.68 352.23 341.328C351.622 340.976 350.974 340.64 350.286 340.32C349.678 340.048 349.078 339.76 348.486 339.456C347.894 339.152 347.35 338.808 346.854 338.424C346.374 338.024 345.982 337.552 345.678 337.008C345.39 336.464 345.246 335.808 345.246 335.04C345.246 334.624 345.318 334.176 345.462 333.696C345.606 333.216 345.854 332.76 346.206 332.328C346.574 331.88 347.07 331.52 347.694 331.248C348.334 330.96 349.142 330.816 350.118 330.816C350.726 330.816 351.406 330.904 352.158 331.08C352.926 331.24 353.638 331.56 354.294 332.04L354.198 331.008H355.422V336.288H354.558ZM362.963 348.384C362.595 348.384 362.219 348.328 361.835 348.216C361.451 348.12 361.091 347.92 360.755 347.616C360.435 347.312 360.179 346.872 359.987 346.296C359.795 345.704 359.699 344.928 359.699 343.968L359.747 337.008L357.899 337.032V336C358.315 335.984 358.739 335.832 359.171 335.544C359.603 335.24 359.987 334.832 360.323 334.32C360.675 333.808 360.915 333.248 361.043 332.64H361.859V336H365.891V336.936L361.859 336.984L361.811 343.656C361.811 344.376 361.867 344.992 361.979 345.504C362.107 346 362.307 346.376 362.579 346.632C362.851 346.888 363.203 347.016 363.635 347.016C364.083 347.016 364.499 346.888 364.883 346.632C365.283 346.376 365.635 346.024 365.939 345.576L366.587 346.104C366.235 346.632 365.883 347.048 365.531 347.352C365.195 347.656 364.867 347.88 364.547 348.024C364.227 348.184 363.931 348.28 363.659 348.312C363.387 348.36 363.155 348.384 362.963 348.384ZM367.797 347.28C368.293 347.28 368.637 347.16 368.829 346.92C369.021 346.664 369.133 346.32 369.165 345.888C369.197 345.44 369.213 344.928 369.213 344.352V338.88C369.213 338.624 369.213 338.368 369.213 338.112C369.229 337.856 369.261 337.592 369.309 337.32C369.021 337.336 368.733 337.352 368.445 337.368C368.173 337.368 367.893 337.376 367.605 337.392V336.408H368.349C369.037 336.408 369.509 336.344 369.765 336.216C370.037 336.072 370.261 335.92 370.437 335.76H371.133C371.165 336.016 371.189 336.336 371.205 336.72C371.221 337.088 371.237 337.56 371.253 338.136C371.493 337.736 371.821 337.344 372.237 336.96C372.653 336.576 373.117 336.256 373.629 336C374.157 335.744 374.709 335.616 375.285 335.616C375.733 335.616 376.125 335.736 376.461 335.976C376.797 336.216 376.965 336.6 376.965 337.128C376.965 337.256 376.925 337.416 376.845 337.608C376.765 337.784 376.637 337.944 376.461 338.088C376.285 338.216 376.053 338.28 375.765 338.28C375.413 338.264 375.133 338.128 374.925 337.872C374.717 337.6 374.637 337.288 374.685 336.936C374.285 336.92 373.869 337.024 373.437 337.248C373.021 337.472 372.629 337.784 372.261 338.184C371.893 338.568 371.565 339.024 371.277 339.552L371.301 345.456C371.301 345.776 371.293 346.064 371.277 346.32C371.277 346.56 371.253 346.816 371.205 347.088C371.461 347.072 371.709 347.064 371.949 347.064C372.205 347.048 372.461 347.032 372.717 347.016V348H367.797V347.28ZM383.889 348.384C382.785 348.384 381.785 348.128 380.889 347.616C380.009 347.088 379.313 346.352 378.801 345.408C378.289 344.448 378.033 343.32 378.033 342.024C378.033 340.904 378.281 339.856 378.777 338.88C379.289 337.904 380.001 337.12 380.913 336.528C381.825 335.92 382.881 335.616 384.081 335.616C384.753 335.616 385.377 335.728 385.953 335.952C386.545 336.16 387.065 336.488 387.513 336.936C387.961 337.368 388.313 337.92 388.569 338.592C388.825 339.248 388.953 340.024 388.953 340.92L380.505 341.064C380.505 342.28 380.633 343.352 380.889 344.28C381.161 345.192 381.593 345.904 382.185 346.416C382.777 346.912 383.537 347.16 384.465 347.16C384.961 347.16 385.465 347.072 385.977 346.896C386.505 346.72 386.993 346.48 387.441 346.176C387.889 345.872 388.249 345.536 388.521 345.168L389.097 345.648C388.665 346.32 388.145 346.856 387.537 347.256C386.929 347.656 386.305 347.944 385.665 348.12C385.025 348.296 384.433 348.384 383.889 348.384ZM380.577 340.056H386.697C386.697 339.48 386.609 338.928 386.433 338.4C386.273 337.856 386.001 337.416 385.617 337.08C385.233 336.728 384.729 336.552 384.105 336.552C383.177 336.552 382.401 336.832 381.777 337.392C381.169 337.936 380.769 338.824 380.577 340.056ZM396.844 348.384C395.74 348.384 394.74 348.128 393.844 347.616C392.964 347.088 392.268 346.352 391.756 345.408C391.244 344.448 390.988 343.32 390.988 342.024C390.988 340.904 391.236 339.856 391.732 338.88C392.244 337.904 392.956 337.12 393.868 336.528C394.78 335.92 395.836 335.616 397.036 335.616C397.708 335.616 398.332 335.728 398.908 335.952C399.5 336.16 400.02 336.488 400.468 336.936C400.916 337.368 401.268 337.92 401.524 338.592C401.78 339.248 401.908 340.024 401.908 340.92L393.46 341.064C393.46 342.28 393.588 343.352 393.844 344.28C394.116 345.192 394.548 345.904 395.14 346.416C395.732 346.912 396.492 347.16 397.42 347.16C397.916 347.16 398.42 347.072 398.932 346.896C399.46 346.72 399.948 346.48 400.396 346.176C400.844 345.872 401.204 345.536 401.476 345.168L402.052 345.648C401.62 346.32 401.1 346.856 400.492 347.256C399.884 347.656 399.26 347.944 398.62 348.12C397.98 348.296 397.388 348.384 396.844 348.384ZM393.532 340.056H399.652C399.652 339.48 399.564 338.928 399.388 338.4C399.228 337.856 398.956 337.416 398.572 337.08C398.188 336.728 397.684 336.552 397.06 336.552C396.132 336.552 395.356 336.832 394.732 337.392C394.124 337.936 393.724 338.824 393.532 340.056ZM408.457 348.384C408.089 348.384 407.713 348.328 407.329 348.216C406.945 348.12 406.585 347.92 406.249 347.616C405.929 347.312 405.673 346.872 405.481 346.296C405.289 345.704 405.193 344.928 405.193 343.968L405.241 337.008L403.393 337.032V336C403.809 335.984 404.233 335.832 404.665 335.544C405.097 335.24 405.481 334.832 405.817 334.32C406.169 333.808 406.409 333.248 406.537 332.64H407.353V336H411.385V336.936L407.353 336.984L407.305 343.656C407.305 344.376 407.361 344.992 407.473 345.504C407.601 346 407.801 346.376 408.073 346.632C408.345 346.888 408.697 347.016 409.129 347.016C409.577 347.016 409.993 346.888 410.377 346.632C410.777 346.376 411.129 346.024 411.433 345.576L412.081 346.104C411.729 346.632 411.377 347.048 411.025 347.352C410.689 347.656 410.361 347.88 410.041 348.024C409.721 348.184 409.425 348.28 409.153 348.312C408.881 348.36 408.649 348.384 408.457 348.384ZM415.067 352.296L414.419 351.816C414.595 351.592 414.779 351.272 414.971 350.856C415.163 350.44 415.315 349.976 415.427 349.464C415.555 348.968 415.587 348.48 415.523 348C415.411 348.048 415.307 348.08 415.211 348.096C415.115 348.128 415.019 348.144 414.923 348.144C414.619 348.144 414.355 348.032 414.131 347.808C413.923 347.584 413.819 347.304 413.819 346.968C413.819 346.52 413.947 346.176 414.203 345.936C414.475 345.696 414.787 345.576 415.139 345.576C415.699 345.576 416.123 345.792 416.411 346.224C416.699 346.64 416.843 347.152 416.843 347.76C416.843 348.16 416.763 348.648 416.603 349.224C416.459 349.8 416.251 350.36 415.979 350.904C415.723 351.464 415.419 351.928 415.067 352.296ZM434.412 341.784C434.412 341.08 434.316 340.576 434.124 340.272C433.932 339.968 433.628 339.784 433.212 339.72C432.796 339.656 432.244 339.64 431.556 339.672L429.804 339.744V345.24C429.804 345.672 429.796 346.04 429.78 346.344C429.78 346.648 429.764 346.904 429.732 347.112L434.316 347.04C435.02 347.024 435.628 346.912 436.14 346.704C436.652 346.48 437.052 346.096 437.34 345.552C437.628 345.008 437.772 344.264 437.772 343.32H438.588L438.444 348H426.06V347.208C426.668 347.176 427.084 347.04 427.308 346.8C427.532 346.544 427.652 346.2 427.668 345.768C427.7 345.32 427.716 344.816 427.716 344.256V333.888C427.716 333.568 427.724 333.264 427.74 332.976C427.756 332.672 427.772 332.4 427.788 332.16C427.5 332.176 427.212 332.192 426.924 332.208C426.636 332.224 426.348 332.24 426.06 332.256V331.2H437.604L437.724 335.4H436.932C436.932 334.456 436.788 333.744 436.5 333.264C436.212 332.768 435.82 332.44 435.324 332.28C434.844 332.104 434.3 332.024 433.692 332.04L431.628 332.088C431.036 332.104 430.612 332.216 430.356 332.424C430.1 332.632 429.94 332.944 429.876 333.36C429.828 333.76 429.804 334.288 429.804 334.944V338.784L434.316 338.808L434.148 336.744H435.204V341.784H434.412ZM440.791 348V347.28C441.287 347.28 441.631 347.16 441.823 346.92C442.015 346.664 442.127 346.32 442.159 345.888C442.191 345.44 442.207 344.928 442.207 344.352L442.231 338.88C442.231 338.624 442.231 338.368 442.231 338.112C442.247 337.856 442.279 337.592 442.327 337.32C442.039 337.336 441.751 337.352 441.463 337.368C441.191 337.384 440.911 337.4 440.623 337.416V336.408C441.327 336.408 441.855 336.376 442.207 336.312C442.575 336.248 442.847 336.168 443.023 336.072C443.199 335.976 443.343 335.872 443.455 335.76H444.151C444.167 335.872 444.175 336 444.175 336.144C444.191 336.288 444.207 336.448 444.223 336.624C444.239 336.8 444.247 337 444.247 337.224C444.599 336.92 444.983 336.648 445.399 336.408C445.831 336.168 446.279 335.976 446.743 335.832C447.223 335.688 447.695 335.616 448.159 335.616C449.551 335.616 450.567 336.056 451.207 336.936C451.847 337.8 452.167 339.152 452.167 340.992V345.456C452.167 345.776 452.159 346.064 452.143 346.32C452.143 346.56 452.119 346.816 452.071 347.088C452.327 347.072 452.575 347.064 452.815 347.064C453.071 347.048 453.327 347.032 453.583 347.016V348H448.687V347.28C449.183 347.28 449.527 347.16 449.719 346.92C449.911 346.664 450.023 346.32 450.055 345.888C450.087 345.44 450.103 344.928 450.103 344.352V340.992C450.087 339.616 449.855 338.576 449.407 337.872C448.975 337.168 448.287 336.824 447.343 336.84C446.767 336.856 446.199 337.008 445.639 337.296C445.095 337.584 444.639 337.952 444.271 338.4C444.287 338.528 444.295 338.672 444.295 338.832C444.295 338.992 444.295 339.16 444.295 339.336L444.271 345.456C444.271 345.776 444.263 346.064 444.247 346.32C444.247 346.56 444.223 346.816 444.175 347.088C444.431 347.072 444.679 347.064 444.919 347.064C445.175 347.048 445.431 347.032 445.687 347.016V348H440.791ZM461.218 354.504C459.778 354.504 458.618 354.344 457.738 354.024C456.858 353.704 456.218 353.296 455.818 352.8C455.418 352.304 455.218 351.792 455.218 351.264C455.218 350.768 455.33 350.328 455.554 349.944C455.794 349.576 456.082 349.256 456.418 348.984C456.77 348.712 457.106 348.512 457.426 348.384C456.914 348.208 456.506 347.976 456.202 347.688C455.914 347.384 455.77 346.984 455.77 346.488C455.77 345.928 455.994 345.408 456.442 344.928C456.89 344.432 457.466 344.128 458.17 344.016C457.434 343.664 456.842 343.176 456.394 342.552C455.962 341.928 455.746 341.2 455.746 340.368C455.746 339.408 455.994 338.576 456.49 337.872C456.986 337.152 457.618 336.6 458.386 336.216C459.17 335.816 459.978 335.616 460.81 335.616C461.338 335.616 461.866 335.696 462.394 335.856C462.922 336 463.41 336.216 463.858 336.504C464.018 336.056 464.242 335.656 464.53 335.304C464.834 334.952 465.178 334.68 465.562 334.488C465.946 334.28 466.346 334.176 466.762 334.176C467.178 334.176 467.49 334.288 467.698 334.512C467.922 334.72 468.034 335.008 468.034 335.376C468.034 335.488 468.002 335.624 467.938 335.784C467.874 335.944 467.762 336.08 467.602 336.192C467.458 336.304 467.258 336.36 467.002 336.36C466.73 336.36 466.506 336.28 466.33 336.12C466.154 335.96 466.042 335.76 465.994 335.52C465.594 335.584 465.282 335.776 465.058 336.096C464.834 336.4 464.682 336.736 464.602 337.104C464.986 337.456 465.29 337.88 465.514 338.376C465.754 338.872 465.874 339.4 465.874 339.96C465.874 340.856 465.634 341.656 465.154 342.36C464.69 343.064 464.074 343.616 463.306 344.016C462.538 344.4 461.706 344.592 460.81 344.592C460.506 344.592 460.242 344.576 460.018 344.544C459.794 344.496 459.522 344.472 459.202 344.472C458.61 344.472 458.13 344.616 457.762 344.904C457.394 345.192 457.266 345.536 457.378 345.936C457.506 346.32 457.898 346.568 458.554 346.68C459.21 346.776 460.09 346.848 461.194 346.896C462.426 346.944 463.482 347.088 464.362 347.328C465.242 347.568 465.914 347.936 466.378 348.432C466.858 348.944 467.098 349.632 467.098 350.496C467.098 351.136 466.922 351.704 466.57 352.2C466.234 352.712 465.778 353.136 465.202 353.472C464.642 353.808 464.01 354.064 463.306 354.24C462.618 354.416 461.922 354.504 461.218 354.504ZM461.194 353.568C462.57 353.568 463.642 353.312 464.41 352.8C465.178 352.288 465.562 351.688 465.562 351C465.562 350.408 465.362 349.952 464.962 349.632C464.562 349.328 464.018 349.112 463.33 348.984C462.642 348.872 461.85 348.808 460.954 348.792C460.522 348.776 460.098 348.752 459.682 348.72C459.266 348.704 458.866 348.664 458.482 348.6C458.05 348.888 457.714 349.24 457.474 349.656C457.234 350.072 457.114 350.512 457.114 350.976C457.114 351.76 457.482 352.384 458.218 352.848C458.97 353.328 459.962 353.568 461.194 353.568ZM460.882 343.728C461.474 343.728 461.962 343.584 462.346 343.296C462.746 343.008 463.042 342.616 463.234 342.12C463.442 341.624 463.546 341.064 463.546 340.44C463.546 339.736 463.442 339.08 463.234 338.472C463.026 337.864 462.714 337.376 462.298 337.008C461.898 336.64 461.386 336.456 460.762 336.456C459.898 336.456 459.226 336.784 458.746 337.44C458.282 338.08 458.05 338.88 458.05 339.84C458.05 340.608 458.162 341.288 458.386 341.88C458.61 342.456 458.93 342.912 459.346 343.248C459.778 343.568 460.29 343.728 460.882 343.728ZM469.111 347.28C469.607 347.28 469.951 347.16 470.143 346.92C470.335 346.664 470.447 346.32 470.479 345.888C470.511 345.44 470.527 344.928 470.527 344.352V333C470.527 332.744 470.527 332.504 470.527 332.28C470.543 332.04 470.567 331.76 470.599 331.44C470.311 331.456 470.023 331.472 469.735 331.488C469.463 331.504 469.183 331.52 468.895 331.536V330.528C469.599 330.528 470.143 330.496 470.527 330.432C470.927 330.368 471.223 330.288 471.415 330.192C471.623 330.096 471.783 329.992 471.895 329.88H472.591L472.615 345.456C472.615 345.776 472.607 346.064 472.591 346.32C472.575 346.56 472.543 346.816 472.495 347.088C472.751 347.072 472.999 347.064 473.239 347.064C473.495 347.048 473.751 347.032 474.007 347.016V348H469.111V347.28ZM481.763 348.384C480.659 348.384 479.659 348.128 478.763 347.616C477.883 347.088 477.187 346.352 476.675 345.408C476.163 344.448 475.907 343.32 475.907 342.024C475.907 340.904 476.155 339.856 476.651 338.88C477.163 337.904 477.875 337.12 478.787 336.528C479.699 335.92 480.755 335.616 481.955 335.616C482.627 335.616 483.251 335.728 483.827 335.952C484.419 336.16 484.939 336.488 485.387 336.936C485.835 337.368 486.187 337.92 486.443 338.592C486.699 339.248 486.827 340.024 486.827 340.92L478.379 341.064C478.379 342.28 478.507 343.352 478.763 344.28C479.035 345.192 479.467 345.904 480.059 346.416C480.651 346.912 481.411 347.16 482.339 347.16C482.835 347.16 483.339 347.072 483.851 346.896C484.379 346.72 484.867 346.48 485.315 346.176C485.763 345.872 486.123 345.536 486.395 345.168L486.971 345.648C486.539 346.32 486.019 346.856 485.411 347.256C484.803 347.656 484.179 347.944 483.539 348.12C482.899 348.296 482.307 348.384 481.763 348.384ZM478.451 340.056H484.571C484.571 339.48 484.483 338.928 484.307 338.4C484.147 337.856 483.875 337.416 483.491 337.08C483.107 336.728 482.603 336.552 481.979 336.552C481.051 336.552 480.275 336.832 479.651 337.392C479.043 337.936 478.643 338.824 478.451 340.056ZM493.062 348.072L489.918 338.856C489.806 338.52 489.702 338.232 489.606 337.992C489.526 337.752 489.462 337.544 489.414 337.368C489.366 337.192 489.326 337.04 489.294 336.912L488.022 336.984V336H493.11V336.72C492.39 336.736 491.99 336.984 491.91 337.464C491.846 337.928 491.942 338.544 492.198 339.312L493.302 342.672C493.43 343.056 493.558 343.448 493.686 343.848C493.814 344.232 493.942 344.616 494.07 345C494.214 344.568 494.358 344.136 494.502 343.704C494.662 343.256 494.814 342.808 494.958 342.36L497.094 336H498.078L500.502 342.984C500.63 343.336 500.758 343.696 500.886 344.064C501.014 344.432 501.142 344.8 501.27 345.168C501.398 344.816 501.518 344.472 501.63 344.136C501.758 343.784 501.878 343.432 501.99 343.08L503.574 338.52C503.686 338.2 503.798 337.896 503.91 337.608C504.022 337.32 504.15 337.088 504.294 336.912L502.902 336.984V336H507.078V336.72C506.662 336.736 506.318 336.792 506.046 336.888C505.79 336.984 505.574 337.112 505.398 337.272C505.222 337.432 505.078 337.624 504.966 337.848C504.854 338.072 504.75 338.328 504.654 338.616L501.198 348.072H500.238L497.958 341.52C497.862 341.232 497.766 340.952 497.67 340.68C497.574 340.392 497.478 340.112 497.382 339.84C497.286 339.552 497.19 339.272 497.094 339C496.998 339.272 496.902 339.552 496.806 339.84C496.71 340.112 496.614 340.392 496.518 340.68C496.422 340.952 496.326 341.232 496.23 341.52L493.974 348.072H493.062ZM513.888 348.384C512.768 348.384 511.752 348.128 510.84 347.616C509.928 347.088 509.2 346.368 508.656 345.456C508.128 344.528 507.864 343.472 507.864 342.288C507.864 341.024 508.128 339.888 508.656 338.88C509.184 337.872 509.904 337.08 510.816 336.504C511.728 335.912 512.752 335.616 513.888 335.616C515.008 335.616 516.024 335.888 516.936 336.432C517.848 336.96 518.576 337.68 519.12 338.592C519.664 339.504 519.936 340.544 519.936 341.712C519.936 342.944 519.664 344.072 519.12 345.096C518.592 346.104 517.872 346.904 516.96 347.496C516.048 348.088 515.024 348.384 513.888 348.384ZM514.08 347.424C514.928 347.424 515.6 347.184 516.096 346.704C516.592 346.224 516.944 345.6 517.152 344.832C517.376 344.064 517.488 343.256 517.488 342.408C517.488 341.688 517.416 340.984 517.272 340.296C517.144 339.592 516.936 338.96 516.648 338.4C516.36 337.824 515.984 337.368 515.52 337.032C515.072 336.696 514.528 336.528 513.888 336.528C513.056 336.528 512.376 336.768 511.848 337.248C511.32 337.728 510.928 338.352 510.672 339.12C510.432 339.888 510.312 340.712 510.312 341.592C510.312 342.584 510.448 343.528 510.72 344.424C510.992 345.304 511.408 346.024 511.968 346.584C512.528 347.144 513.232 347.424 514.08 347.424ZM527.992 348.384C526.872 348.384 525.856 348.128 524.944 347.616C524.032 347.088 523.304 346.368 522.76 345.456C522.232 344.528 521.968 343.472 521.968 342.288C521.968 341.024 522.232 339.888 522.76 338.88C523.288 337.872 524.008 337.08 524.92 336.504C525.832 335.912 526.856 335.616 527.992 335.616C529.112 335.616 530.128 335.888 531.04 336.432C531.952 336.96 532.68 337.68 533.224 338.592C533.768 339.504 534.04 340.544 534.04 341.712C534.04 342.944 533.768 344.072 533.224 345.096C532.696 346.104 531.976 346.904 531.064 347.496C530.152 348.088 529.128 348.384 527.992 348.384ZM528.184 347.424C529.032 347.424 529.704 347.184 530.2 346.704C530.696 346.224 531.048 345.6 531.256 344.832C531.48 344.064 531.592 343.256 531.592 342.408C531.592 341.688 531.52 340.984 531.376 340.296C531.248 339.592 531.04 338.96 530.752 338.4C530.464 337.824 530.088 337.368 529.624 337.032C529.176 336.696 528.632 336.528 527.992 336.528C527.16 336.528 526.48 336.768 525.952 337.248C525.424 337.728 525.032 338.352 524.776 339.12C524.536 339.888 524.416 340.712 524.416 341.592C524.416 342.584 524.552 343.528 524.824 344.424C525.096 345.304 525.512 346.024 526.072 346.584C526.632 347.144 527.336 347.424 528.184 347.424ZM541.28 348.384C540.304 348.384 539.424 348.144 538.64 347.664C537.856 347.168 537.232 346.464 536.768 345.552C536.32 344.64 536.096 343.568 536.096 342.336C536.096 341.024 536.36 339.864 536.888 338.856C537.416 337.848 538.144 337.056 539.072 336.48C540.016 335.904 541.08 335.616 542.264 335.616C542.792 335.616 543.312 335.688 543.824 335.832C544.352 335.96 544.768 336.112 545.072 336.288V333C545.072 332.744 545.072 332.504 545.072 332.28C545.088 332.04 545.112 331.76 545.144 331.44C544.856 331.456 544.568 331.472 544.28 331.488C544.008 331.504 543.728 331.52 543.44 331.536V330.528C544.144 330.528 544.688 330.496 545.072 330.432C545.456 330.368 545.744 330.288 545.936 330.192C546.144 330.096 546.304 329.992 546.416 329.88H547.112V345.456C547.112 345.712 547.104 345.968 547.088 346.224C547.072 346.48 547.048 346.768 547.016 347.088C547.304 347.072 547.584 347.056 547.856 347.04C548.144 347.024 548.432 347.008 548.72 346.992V348H545.288C545.24 347.76 545.2 347.544 545.168 347.352C545.152 347.144 545.136 346.944 545.12 346.752C544.672 347.248 544.12 347.648 543.464 347.952C542.808 348.24 542.08 348.384 541.28 348.384ZM542.144 347.208C542.672 347.208 543.2 347.056 543.728 346.752C544.272 346.448 544.72 346.072 545.072 345.624C545.056 345.432 545.048 345.232 545.048 345.024C545.048 344.8 545.048 344.56 545.048 344.304L545.072 337.392C544.688 337.104 544.264 336.896 543.8 336.768C543.352 336.624 542.888 336.552 542.408 336.552C541.608 336.552 540.912 336.784 540.32 337.248C539.728 337.712 539.28 338.36 538.976 339.192C538.672 340.024 538.536 341 538.568 342.12C538.6 343.096 538.752 343.968 539.024 344.736C539.312 345.504 539.712 346.112 540.224 346.56C540.752 346.992 541.392 347.208 542.144 347.208ZM552.329 352.296L551.681 351.816C551.857 351.592 552.041 351.272 552.233 350.856C552.425 350.44 552.577 349.976 552.689 349.464C552.817 348.968 552.849 348.48 552.785 348C552.673 348.048 552.569 348.08 552.473 348.096C552.377 348.128 552.281 348.144 552.185 348.144C551.881 348.144 551.617 348.032 551.393 347.808C551.185 347.584 551.081 347.304 551.081 346.968C551.081 346.52 551.209 346.176 551.465 345.936C551.737 345.696 552.049 345.576 552.401 345.576C552.961 345.576 553.385 345.792 553.673 346.224C553.961 346.64 554.105 347.152 554.105 347.76C554.105 348.16 554.025 348.648 553.865 349.224C553.721 349.8 553.513 350.36 553.241 350.904C552.985 351.464 552.681 351.928 552.329 352.296ZM576.45 348.384L566.874 335.52C566.73 335.328 566.586 335.144 566.442 334.968C566.314 334.776 566.178 334.584 566.034 334.392H566.01L566.082 344.664C566.082 345.064 566.082 345.464 566.082 345.864C566.082 346.264 566.066 346.656 566.034 347.04C566.322 347.024 566.61 347.008 566.898 346.992C567.186 346.976 567.474 346.96 567.762 346.944V348H563.37V347.208C563.866 347.208 564.218 347.104 564.426 346.896C564.65 346.672 564.794 346.416 564.858 346.128C564.922 345.824 564.954 345.552 564.954 345.312L564.978 333.768C564.978 333.496 564.978 333.224 564.978 332.952C564.978 332.68 564.978 332.416 564.978 332.16C564.722 332.176 564.458 332.192 564.186 332.208C563.914 332.224 563.642 332.24 563.37 332.256V331.2H566.226L575.226 343.248C575.434 343.52 575.634 343.792 575.826 344.064C576.034 344.336 576.242 344.608 576.45 344.88H576.474L576.498 333.888C576.498 333.568 576.506 333.264 576.522 332.976C576.538 332.672 576.554 332.4 576.57 332.16C576.282 332.176 575.994 332.192 575.706 332.208C575.418 332.224 575.13 332.24 574.842 332.256V331.2H579.258V331.992C578.666 332.008 578.258 332.144 578.034 332.4C577.81 332.656 577.69 333 577.674 333.432C577.658 333.864 577.65 334.368 577.65 334.944L577.602 348.384H576.45ZM582.844 348.384C582.396 348.384 581.98 348.312 581.596 348.168C581.212 348.04 580.9 347.848 580.66 347.592C580.42 347.336 580.3 347.032 580.3 346.68C580.3 346.36 580.38 346.08 580.54 345.84C580.716 345.584 580.98 345.448 581.332 345.432C581.732 345.4 582.004 345.512 582.148 345.768C582.308 346.008 582.388 346.248 582.388 346.488C582.388 346.552 582.38 346.64 582.364 346.752C582.348 346.848 582.324 346.936 582.292 347.016C582.388 347.176 582.54 347.288 582.748 347.352C582.956 347.4 583.116 347.416 583.228 347.4C583.708 347.384 584.06 347.168 584.284 346.752C584.524 346.336 584.644 345.64 584.644 344.664V334.296C584.644 333.928 584.644 333.568 584.644 333.216C584.644 332.864 584.644 332.512 584.644 332.16C584.244 332.176 583.836 332.192 583.42 332.208C583.02 332.224 582.612 332.24 582.196 332.256V331.2H588.58V331.992C588.052 331.992 587.652 332.096 587.38 332.304C587.124 332.512 586.948 332.8 586.852 333.168C586.772 333.52 586.732 333.92 586.732 334.368V342.144C586.732 344.4 586.428 346.008 585.82 346.968C585.212 347.912 584.22 348.384 582.844 348.384ZM603.2 348.384C601.984 348.384 600.976 348.128 600.176 347.616C599.376 347.088 598.752 346.4 598.304 345.552C597.856 344.688 597.536 343.744 597.344 342.72C597.168 341.696 597.08 340.68 597.08 339.672C597.08 338.664 597.192 337.64 597.416 336.6C597.656 335.56 598.024 334.608 598.52 333.744C599.016 332.864 599.656 332.16 600.44 331.632C601.224 331.088 602.176 330.816 603.296 330.816C604.464 330.816 605.432 331.08 606.2 331.608C606.984 332.136 607.6 332.832 608.048 333.696C608.512 334.544 608.84 335.48 609.032 336.504C609.224 337.528 609.32 338.544 609.32 339.552C609.32 340.544 609.208 341.56 608.984 342.6C608.76 343.64 608.408 344.6 607.928 345.48C607.448 346.344 606.816 347.048 606.032 347.592C605.264 348.12 604.32 348.384 603.2 348.384ZM603.344 347.448C604.032 347.448 604.6 347.232 605.048 346.8C605.496 346.368 605.848 345.792 606.104 345.072C606.376 344.352 606.568 343.56 606.68 342.696C606.792 341.816 606.848 340.936 606.848 340.056C606.848 339.08 606.792 338.104 606.68 337.128C606.568 336.152 606.376 335.256 606.104 334.44C605.832 333.624 605.464 332.968 605 332.472C604.536 331.976 603.952 331.728 603.248 331.728C602.56 331.728 601.976 331.944 601.496 332.376C601.032 332.808 600.656 333.384 600.368 334.104C600.08 334.824 599.872 335.624 599.744 336.504C599.616 337.384 599.552 338.272 599.552 339.168C599.552 339.84 599.584 340.552 599.648 341.304C599.712 342.056 599.824 342.8 599.984 343.536C600.16 344.256 600.392 344.912 600.68 345.504C600.968 346.096 601.328 346.568 601.76 346.92C602.192 347.272 602.72 347.448 603.344 347.448ZM614.848 348.384C614.544 348.352 614.328 348.24 614.2 348.048C614.072 347.856 614.008 347.616 614.008 347.328C614.008 346.976 614.096 346.52 614.272 345.96C614.464 345.4 614.688 344.808 614.944 344.184C615.2 343.544 615.432 342.96 615.64 342.432C615.944 341.68 616.304 340.768 616.72 339.696C617.136 338.624 617.592 337.496 618.088 336.312C618.6 335.112 619.12 333.96 619.648 332.856L613.312 332.88C612.672 332.896 612.168 333.048 611.8 333.336C611.448 333.624 611.272 334.096 611.272 334.752H610.696V331.2H620.752V332.832C620.176 334.032 619.672 335.176 619.24 336.264C618.824 337.352 618.448 338.448 618.112 339.552C617.776 340.64 617.456 341.784 617.152 342.984C616.848 344.184 616.52 345.496 616.168 346.92C616.072 347.304 615.92 347.648 615.712 347.952C615.52 348.256 615.232 348.4 614.848 348.384ZM628.376 348.384C626.952 348.384 625.816 348.048 624.968 347.376C624.136 346.704 623.536 345.752 623.168 344.52C622.816 343.272 622.64 341.8 622.64 340.104C622.64 339.528 622.688 338.848 622.784 338.064C622.896 337.264 623.088 336.448 623.36 335.616C623.632 334.768 624.008 333.984 624.488 333.264C624.984 332.528 625.616 331.936 626.384 331.488C627.152 331.04 628.08 330.816 629.168 330.816C630.128 330.816 630.92 330.992 631.544 331.344C632.168 331.68 632.632 332.088 632.936 332.568C633.256 333.032 633.416 333.464 633.416 333.864C633.416 334.2 633.328 334.488 633.152 334.728C632.992 334.952 632.736 335.08 632.384 335.112C631.984 335.128 631.704 335.016 631.544 334.776C631.384 334.536 631.304 334.312 631.304 334.104C631.304 333.944 631.328 333.776 631.376 333.6C631.424 333.424 631.496 333.256 631.592 333.096C631.512 332.808 631.256 332.504 630.824 332.184C630.408 331.864 629.872 331.704 629.216 331.704C628.48 331.704 627.856 331.896 627.344 332.28C626.848 332.664 626.44 333.168 626.12 333.792C625.816 334.416 625.576 335.088 625.4 335.808C625.224 336.512 625.096 337.192 625.016 337.848C624.952 338.504 624.912 339.064 624.896 339.528C625.168 339.176 625.496 338.848 625.88 338.544C626.264 338.24 626.712 337.992 627.224 337.8C627.736 337.608 628.304 337.512 628.928 337.512C629.888 337.512 630.688 337.68 631.328 338.016C631.984 338.336 632.504 338.76 632.888 339.288C633.288 339.816 633.568 340.4 633.728 341.04C633.904 341.664 633.992 342.28 633.992 342.888C633.992 343.88 633.744 344.8 633.248 345.648C632.768 346.48 632.104 347.144 631.256 347.64C630.408 348.136 629.448 348.384 628.376 348.384ZM628.424 347.448C629.176 347.448 629.784 347.264 630.248 346.896C630.712 346.512 631.048 346.016 631.256 345.408C631.464 344.784 631.568 344.12 631.568 343.416C631.568 342.968 631.528 342.472 631.448 341.928C631.368 341.368 631.216 340.84 630.992 340.344C630.784 339.832 630.472 339.416 630.056 339.096C629.64 338.76 629.096 338.592 628.424 338.592C627.928 338.592 627.44 338.72 626.96 338.976C626.48 339.216 626.056 339.536 625.688 339.936C625.336 340.336 625.08 340.768 624.92 341.232C624.968 342 625.056 342.752 625.184 343.488C625.328 344.224 625.528 344.888 625.784 345.48C626.056 346.072 626.408 346.552 626.84 346.92C627.272 347.272 627.8 347.448 628.424 347.448ZM641.356 348.384C640.204 348.384 639.252 348.216 638.5 347.88C637.748 347.528 637.188 347.096 636.82 346.584C636.468 346.072 636.292 345.584 636.292 345.12C636.292 344.752 636.388 344.448 636.58 344.208C636.772 343.952 637.044 343.816 637.396 343.8C637.684 343.784 637.908 343.84 638.068 343.968C638.244 344.08 638.364 344.224 638.428 344.4C638.492 344.576 638.524 344.736 638.524 344.88C638.524 345.04 638.5 345.2 638.452 345.36C638.404 345.52 638.34 345.68 638.26 345.84C638.42 346.384 638.78 346.776 639.34 347.016C639.916 347.256 640.532 347.376 641.188 347.376C642.324 347.376 643.228 347.064 643.9 346.44C644.588 345.816 644.932 344.912 644.932 343.728C644.932 343.024 644.82 342.36 644.596 341.736C644.372 341.096 643.956 340.576 643.348 340.176C642.74 339.776 641.852 339.592 640.684 339.624C640.556 339.624 640.42 339.632 640.276 339.648C640.132 339.648 639.972 339.656 639.796 339.672V338.592C639.972 338.592 640.14 338.592 640.3 338.592C640.46 338.592 640.62 338.592 640.78 338.592C641.628 338.592 642.292 338.4 642.772 338.016C643.252 337.632 643.596 337.176 643.804 336.648C644.012 336.12 644.116 335.632 644.116 335.184C644.116 334.528 644.028 333.944 643.852 333.432C643.692 332.904 643.404 332.496 642.988 332.208C642.572 331.904 641.996 331.752 641.26 331.752C640.54 331.752 639.924 331.944 639.412 332.328C638.9 332.696 638.58 333.08 638.452 333.48C638.596 333.64 638.692 333.8 638.74 333.96C638.804 334.12 638.836 334.288 638.836 334.464C638.836 334.592 638.796 334.744 638.716 334.92C638.652 335.08 638.54 335.216 638.38 335.328C638.22 335.44 638.004 335.496 637.732 335.496C637.396 335.496 637.14 335.376 636.964 335.136C636.788 334.896 636.7 334.608 636.7 334.272C636.7 333.824 636.876 333.336 637.228 332.808C637.58 332.264 638.116 331.8 638.836 331.416C639.572 331.016 640.492 330.816 641.596 330.816C642.46 330.816 643.26 330.952 643.996 331.224C644.732 331.496 645.324 331.944 645.772 332.568C646.22 333.176 646.444 333.984 646.444 334.992C646.444 335.488 646.316 335.992 646.06 336.504C645.82 337 645.412 337.464 644.836 337.896C644.276 338.328 643.5 338.696 642.508 339C644.028 339.16 645.22 339.648 646.084 340.464C646.964 341.28 647.404 342.312 647.404 343.56C647.404 344.648 647.116 345.552 646.54 346.272C645.98 346.976 645.236 347.504 644.308 347.856C643.396 348.208 642.412 348.384 641.356 348.384ZM650.436 348V347.208C650.996 347.176 651.42 347.048 651.708 346.824C652.012 346.6 652.22 346.288 652.332 345.888C652.46 345.488 652.524 345.016 652.524 344.472L652.452 333.144L649.572 334.992L649.092 334.296L653.772 330.816H654.588L654.612 345.384C654.612 345.688 654.604 345.984 654.588 346.272C654.588 346.56 654.572 346.816 654.54 347.04C654.876 347.024 655.212 347.008 655.548 346.992C655.884 346.976 656.22 346.96 656.556 346.944V348H650.436Z" fill="#B7926A"/>
</svg>
