<svg width="55" height="16" viewBox="0 0 55 16" fill="none" xmlns="http://www.w3.org/2000/svg">
<path d="M11.4 11.424C11.4 11.392 11.432 11.376 11.496 11.376C11.544 11.376 11.584 11.384 11.616 11.4C11.664 11.416 11.688 11.44 11.688 11.472C11.544 12.48 11.472 13.536 11.472 14.64C11.472 14.768 11.44 14.864 11.376 14.928C11.328 14.976 11.232 15 11.088 15H1.032C1 15 0.984 14.952 0.984 14.856C0.984 14.76 1 14.712 1.032 14.712C1.64 14.712 2.08 14.672 2.352 14.592C2.64 14.512 2.832 14.36 2.928 14.136C3.04 13.896 3.096 13.536 3.096 13.056V1.944C3.096 1.464 3.04 1.112 2.928 0.888C2.832 0.663999 2.64 0.511999 2.352 0.431999C2.08 0.335999 1.64 0.287999 1.032 0.287999C1 0.287999 0.984 0.239999 0.984 0.144C0.984 0.0479999 1 0 1.032 0H10.68C10.824 0 10.896 0.0719995 10.896 0.215999L10.944 3.168C10.944 3.216 10.904 3.248 10.824 3.264C10.744 3.264 10.696 3.24 10.68 3.192C10.632 2.344 10.376 1.688 9.912 1.224C9.448 0.743999 8.832 0.503999 8.064 0.503999H6.6C6.04 0.503999 5.624 0.551999 5.352 0.647999C5.096 0.727999 4.912 0.879999 4.8 1.104C4.704 1.312 4.656 1.632 4.656 2.064V6.936H7.584C8.352 6.936 8.896 6.808 9.216 6.552C9.552 6.296 9.72 5.864 9.72 5.256C9.72 5.224 9.768 5.208 9.864 5.208C9.96 5.208 10.008 5.224 10.008 5.256L9.984 7.2C9.984 7.664 9.992 8.016 10.008 8.256L10.032 9.408C10.032 9.44 9.984 9.456 9.888 9.456C9.792 9.456 9.744 9.44 9.744 9.408C9.744 8.704 9.568 8.2 9.216 7.896C8.88 7.592 8.312 7.44 7.512 7.44H4.656V12.96C4.656 13.408 4.704 13.736 4.8 13.944C4.896 14.152 5.072 14.296 5.328 14.376C5.584 14.456 5.984 14.496 6.528 14.496H8.448C9.216 14.496 9.856 14.224 10.368 13.68C10.88 13.136 11.224 12.384 11.4 11.424ZM35.3306 0C35.3626 0 35.3786 0.0479999 35.3786 0.144C35.3786 0.239999 35.3626 0.287999 35.3306 0.287999C34.7866 0.287999 34.3146 0.431999 33.9146 0.719999C33.5146 1.008 33.1706 1.496 32.8826 2.184L27.7706 14.976C27.7546 15.04 27.6666 15.072 27.5066 15.072C27.3786 15.072 27.2906 15.04 27.2426 14.976L24.1226 8.16L21.4106 14.976C21.3946 15.04 21.3066 15.072 21.1466 15.072C21.0186 15.072 20.9306 15.04 20.8826 14.976L14.9066 1.992C14.6186 1.352 14.3306 0.912 14.0426 0.672C13.7546 0.415999 13.3626 0.287999 12.8666 0.287999C12.8186 0.287999 12.7946 0.239999 12.7946 0.144C12.7946 0.0479999 12.8186 0 12.8666 0L13.7786 0.0239997C14.2266 0.0559993 14.5866 0.0719991 14.8586 0.0719991C15.4346 0.0719991 16.0586 0.0559993 16.7306 0.0239997L17.7146 0C17.7626 0 17.7866 0.0479999 17.7866 0.144C17.7866 0.239999 17.7626 0.287999 17.7146 0.287999C17.2346 0.287999 16.8746 0.343999 16.6346 0.456C16.4106 0.567999 16.2986 0.759999 16.2986 1.032C16.2986 1.272 16.3786 1.56 16.5386 1.896L21.6506 12.864L23.8106 7.488L21.2906 1.992C21.0026 1.368 20.7146 0.927999 20.4266 0.672C20.1386 0.415999 19.7626 0.287999 19.2986 0.287999C19.2506 0.287999 19.2266 0.239999 19.2266 0.144C19.2266 0.0479999 19.2506 0 19.2986 0L20.1866 0.0239997C20.6346 0.0559993 20.9866 0.0719991 21.2426 0.0719991C21.6906 0.0719991 22.1546 0.0559993 22.6346 0.0239997L23.2826 0C23.3306 0 23.3546 0.0479999 23.3546 0.144C23.3546 0.239999 23.3306 0.287999 23.2826 0.287999C22.9946 0.287999 22.7866 0.311999 22.6586 0.36C22.5466 0.407999 22.4906 0.503999 22.4906 0.647999C22.4906 0.855999 22.6346 1.272 22.9226 1.896L24.6746 5.64L26.0906 2.064C26.2666 1.584 26.3546 1.224 26.3546 0.983999C26.3546 0.743999 26.2746 0.567999 26.1146 0.456C25.9546 0.343999 25.6986 0.287999 25.3466 0.287999C25.2986 0.287999 25.2746 0.239999 25.2746 0.144C25.2746 0.0479999 25.2986 0 25.3466 0L25.8986 0.0239997C26.2186 0.0559993 26.5546 0.0719991 26.9066 0.0719991C27.2266 0.0719991 27.5946 0.0559993 28.0106 0.0239997L28.9946 0C29.0266 0 29.0426 0.0479999 29.0426 0.144C29.0426 0.239999 29.0266 0.287999 28.9946 0.287999C28.4506 0.287999 27.9866 0.431999 27.6026 0.719999C27.2346 0.992 26.9066 1.48 26.6186 2.184L24.9866 6.288L28.0346 12.864L32.3306 2.112C32.4586 1.776 32.5226 1.496 32.5226 1.272C32.5226 0.935999 32.3786 0.687999 32.0906 0.527999C31.8026 0.367999 31.3466 0.287999 30.7226 0.287999C30.6746 0.287999 30.6506 0.239999 30.6506 0.144C30.6506 0.0479999 30.6746 0 30.7226 0L31.7066 0.0239997C32.2506 0.0559993 32.7466 0.0719991 33.1946 0.0719991C33.5146 0.0719991 33.8826 0.0559993 34.2986 0.0239997L35.3306 0ZM54.7146 14.712C54.7626 14.712 54.7866 14.76 54.7866 14.856C54.7866 14.952 54.7626 15 54.7146 15C54.2186 15 53.8266 14.992 53.5386 14.976L51.8826 14.952L50.3466 14.976C50.0906 14.992 49.7306 15 49.2666 15C49.2346 15 49.2186 14.952 49.2186 14.856C49.2186 14.76 49.2346 14.712 49.2666 14.712C49.8106 14.712 50.2106 14.672 50.4666 14.592C50.7386 14.496 50.9146 14.336 50.9946 14.112C51.0906 13.888 51.1226 13.536 51.0906 13.056L50.6586 2.136L45.1866 14.832C45.1546 14.896 45.0906 14.928 44.9946 14.928C44.9146 14.928 44.8426 14.896 44.7786 14.832L38.8746 2.28L38.6586 12.384C38.6426 13.232 38.7866 13.832 39.0906 14.184C39.3946 14.536 39.9306 14.712 40.6986 14.712C40.7306 14.712 40.7466 14.76 40.7466 14.856C40.7466 14.952 40.7306 15 40.6986 15C40.2506 15 39.9066 14.992 39.6666 14.976L38.3706 14.952L37.1226 14.976C36.8986 14.992 36.5786 15 36.1626 15C36.1306 15 36.1146 14.952 36.1146 14.856C36.1146 14.76 36.1306 14.712 36.1626 14.712C36.8346 14.712 37.3146 14.536 37.6026 14.184C37.9066 13.816 38.0666 13.216 38.0826 12.384L38.2986 1.248C37.8186 0.607999 37.1626 0.287999 36.3306 0.287999C36.2986 0.287999 36.2826 0.239999 36.2826 0.144C36.2826 0.0479999 36.2986 0 36.3306 0L37.2186 0.0239997C37.3786 0.0399995 37.6026 0.0479994 37.8906 0.0479994C38.1786 0.0479994 38.4186 0.0399995 38.6106 0.0239997C38.8186 0.0079999 38.9786 0 39.0906 0C39.2986 0 39.4666 0.0799999 39.5946 0.24C39.7386 0.384 39.9386 0.72 40.1946 1.248L45.5466 12.528L50.7786 0.599999C50.9546 0.2 51.1946 0 51.4986 0C51.5786 0 51.6906 0.0079999 51.8346 0.0239997C51.9946 0.0399995 52.2026 0.0479994 52.4586 0.0479994L53.5866 0.0239997C53.7626 0.0079999 54.0266 0 54.3786 0C54.4266 0 54.4506 0.0479999 54.4506 0.144C54.4506 0.239999 54.4266 0.287999 54.3786 0.287999C53.5786 0.287999 53.0026 0.407999 52.6506 0.647999C52.3146 0.871999 52.1546 1.304 52.1706 1.944L52.6506 13.056C52.6666 13.552 52.7226 13.912 52.8186 14.136C52.9306 14.36 53.1226 14.512 53.3946 14.592C53.6666 14.672 54.1066 14.712 54.7146 14.712Z" fill="black"/>
</svg>
